
<svg width="790" height="698" viewBox="0 0 790 698" fill="none" xmlns="http://www.w3.org/2000/svg">
<g clip-path="url(#clip0_33_337)">
<path d="M718.707 636.883C703.574 655.11 686.235 670.848 667.199 683.634C666.763 683.935 666.319 684.219 665.873 684.512L635.056 653.827C635.38 653.489 635.738 653.109 636.124 652.692C659.086 628.163 773.079 456.662 780.675 414.898C780.15 418.378 787.529 554.822 718.707 636.883Z" fill="#F0F0F0"/>
<path d="M673.145 689.554C672.563 689.711 671.97 689.857 671.375 689.99L648.255 666.97C648.707 666.793 649.235 666.582 649.839 666.348C659.759 662.397 689.303 650.468 718.705 636.881C750.297 622.276 781.738 605.773 788.5 595.202C787.05 597.659 742.369 672.14 673.145 689.554Z" fill="#F0F0F0"/>
<path d="M718.28 182.972H714.987V81.5023C714.987 73.79 713.637 66.1533 711.014 59.0282C708.39 51.903 704.545 45.4289 699.698 39.9755C694.85 34.5221 689.096 30.1963 682.762 27.2449C676.429 24.2936 669.64 22.7745 662.785 22.7745H471.695C464.839 22.7745 458.051 24.2935 451.718 27.2449C445.384 30.1962 439.629 34.522 434.782 39.9754C429.935 45.4288 426.089 51.9028 423.466 59.028C420.842 66.1531 419.492 73.7899 419.492 81.5021V638.171C419.492 645.883 420.842 653.52 423.466 660.645C426.089 667.77 429.934 674.244 434.782 679.698C439.629 685.151 445.384 689.477 451.718 692.428C458.051 695.38 464.839 696.899 471.695 696.899H662.785C669.64 696.899 676.428 695.38 682.762 692.428C689.095 689.477 694.85 685.151 699.698 679.698C704.545 674.245 708.39 667.77 711.014 660.645C713.637 653.52 714.987 645.883 714.987 638.171V255.199H718.28V182.972Z" fill="#3F3D56"/>
<path d="M703.875 81.9057V637.764C703.875 643.524 702.867 649.227 700.907 654.548C698.947 659.869 696.075 664.703 692.455 668.775C688.834 672.847 684.535 676.077 679.805 678.279C675.075 680.482 670.005 681.615 664.885 681.612H472.875C467.756 681.613 462.688 680.479 457.959 678.276C453.23 676.072 448.933 672.842 445.314 668.771C441.694 664.699 438.823 659.865 436.865 654.545C434.906 649.225 433.898 643.523 433.898 637.764V81.9057C433.898 76.1473 434.906 70.4453 436.865 65.1252C438.823 59.8051 441.694 54.9711 445.314 50.8993C448.933 46.8276 453.23 43.5978 457.959 41.3944C462.688 39.1909 467.756 38.0571 472.875 38.0575H496.176C495.032 41.2215 494.597 44.6531 494.909 48.0507C495.221 51.4483 496.27 54.7076 497.964 57.5421C499.658 60.3766 501.945 62.6994 504.624 64.3061C507.303 65.9129 510.292 66.7544 513.328 66.7567H622.799C625.837 66.7599 628.829 65.922 631.511 64.3167C634.193 62.7115 636.482 60.3883 638.177 57.5522C639.872 54.7161 640.921 51.4542 641.23 48.0544C641.54 44.6546 641.101 41.2213 639.952 38.0575H664.885C670.005 38.0554 675.075 39.188 679.805 41.3907C684.535 43.5933 688.834 46.8228 692.455 50.8947C696.075 54.9666 698.947 59.8011 700.907 65.122C702.867 70.443 703.875 76.1461 703.875 81.9057V81.9057Z" fill="white"/>
<path d="M644.148 370.76H475.376C472.42 370.756 469.586 369.433 467.496 367.081C465.406 364.73 464.23 361.542 464.227 358.216V351.972C464.23 348.647 465.406 345.458 467.496 343.107C469.586 340.755 472.42 339.433 475.376 339.429H644.148C647.104 339.433 649.938 340.755 652.028 343.107C654.118 345.458 655.294 348.647 655.297 351.972V358.216C655.294 361.542 654.118 364.73 652.028 367.081C649.938 369.433 647.104 370.756 644.148 370.76Z" fill="#F0F0F0"/>
<path d="M644.148 424.58H475.376C472.42 424.577 469.586 423.254 467.496 420.902C465.406 418.551 464.23 415.363 464.227 412.037V405.793C464.23 402.468 465.406 399.279 467.496 396.928C469.586 394.576 472.42 393.254 475.376 393.25H644.148C647.104 393.254 649.938 394.576 652.028 396.928C654.118 399.279 655.294 402.468 655.297 405.793V412.037C655.294 415.363 654.118 418.551 652.028 420.902C649.938 423.254 647.104 424.577 644.148 424.58V424.58Z" fill="#F0F0F0"/>
<path d="M652.59 358.723H483.819C480.715 358.719 477.739 357.33 475.544 354.86C473.349 352.391 472.115 349.044 472.111 345.552V339.308C472.115 335.816 473.349 332.469 475.544 329.999C477.739 327.53 480.715 326.141 483.819 326.137H652.59C655.694 326.141 658.67 327.53 660.864 329.999C663.059 332.469 664.294 335.816 664.297 339.308V345.552C664.294 349.044 663.059 352.391 660.864 354.86C658.67 357.33 655.694 358.719 652.59 358.723V358.723ZM483.819 328.646C481.306 328.649 478.897 329.774 477.12 331.772C475.344 333.771 474.344 336.481 474.341 339.308V345.552C474.344 348.379 475.344 351.089 477.12 353.087C478.897 355.086 481.306 356.211 483.819 356.214H652.59C655.103 356.211 657.512 355.086 659.288 353.087C661.065 351.089 662.064 348.379 662.067 345.552V339.308C662.064 336.481 661.065 333.771 659.288 331.772C657.512 329.774 655.103 328.649 652.59 328.646H483.819Z" fill="#3F3D56"/>
<path d="M652.59 412.543H483.819C480.715 412.539 477.739 411.151 475.544 408.681C473.349 406.212 472.115 402.865 472.111 399.373V393.129C472.115 389.637 473.349 386.289 475.544 383.82C477.739 381.351 480.715 379.962 483.819 379.958H652.59C655.694 379.962 658.67 381.351 660.864 383.82C663.059 386.289 664.294 389.637 664.297 393.129V399.373C664.294 402.865 663.059 406.212 660.864 408.681C658.67 411.151 655.694 412.539 652.59 412.543V412.543ZM483.819 382.467C481.306 382.47 478.897 383.595 477.12 385.593C475.344 387.592 474.344 390.302 474.341 393.129V399.373C474.344 402.199 475.344 404.91 477.12 406.908C478.897 408.907 481.306 410.032 483.819 410.035H652.59C655.103 410.032 657.512 408.907 659.288 406.908C661.065 404.91 662.064 402.199 662.067 399.373V393.129C662.064 390.302 661.065 387.592 659.288 385.593C657.512 383.595 655.103 382.47 652.59 382.467H483.819Z" fill="#3F3D56"/>
<path d="M703.875 81.9057V202.813C686.798 207.867 668.918 208.447 651.611 204.508C634.303 200.568 618.03 192.215 604.042 180.091C590.055 167.966 578.726 152.393 570.927 134.57C563.129 116.747 559.068 97.1488 559.059 77.2835C559.059 73.7376 559.185 70.2287 559.439 66.7567H622.799C625.837 66.7599 628.829 65.922 631.511 64.3167C634.193 62.7115 636.482 60.3883 638.177 57.5522C639.872 54.7161 640.921 51.4542 641.23 48.0544C641.54 44.6546 641.101 41.2213 639.952 38.0575H664.885C670.005 38.0554 675.075 39.188 679.805 41.3907C684.535 43.5933 688.834 46.8228 692.455 50.8947C696.075 54.9666 698.947 59.8011 700.907 65.122C702.867 70.443 703.875 76.1461 703.875 81.9057V81.9057Z" fill="#F0F0F0"/>
<path d="M530.917 674.062C530.917 676.61 530.832 679.127 530.65 681.612H472.875C467.756 681.613 462.688 680.479 457.959 678.276C453.23 676.072 448.933 672.842 445.314 668.771C441.694 664.699 438.823 659.865 436.865 654.545C434.906 649.225 433.898 643.523 433.898 637.764V578.308C446.009 576.536 458.316 577.688 469.999 581.688C481.683 585.688 492.474 592.443 501.655 601.504C510.835 610.564 518.193 621.722 523.239 634.234C528.285 646.745 530.902 660.323 530.917 674.062H530.917Z" fill="white"/>
<path d="M64.9439 569.738C66.5673 570.541 68.4076 570.587 70.0612 569.866C71.7148 569.145 73.0466 567.715 73.7645 565.891L125.811 433.188C127.002 430.151 127.366 426.785 126.857 423.515C126.348 420.246 124.988 417.219 122.95 414.819C120.912 412.419 118.287 410.753 115.407 410.031C112.527 409.309 109.521 409.565 106.77 410.765H106.77C103.592 412.13 100.932 414.692 99.2437 418.015C98.9751 418.541 98.7316 419.082 98.5141 419.637L46.4674 552.34C46.1127 553.245 45.9198 554.219 45.8997 555.207C45.8796 556.195 46.0327 557.178 46.3503 558.099C46.6679 559.021 47.1438 559.863 47.7507 560.578C48.3576 561.292 49.0837 561.865 49.8875 562.264L64.9439 569.738Z" fill="white"/>
<path d="M123.675 487.668L72.1938 474.798L84.9358 436.876C87.1065 427.607 92.1582 419.521 99.1745 414.083C106.191 408.646 114.707 406.217 123.179 407.238L123.675 407.3L123.675 487.668Z" fill="#EC7580"/>
<path d="M227.658 571.636C226.143 571.633 224.662 571.137 223.394 570.207C222.125 569.277 221.123 567.954 220.508 566.397L168.462 433.694C166.807 429.471 166.653 424.696 168.032 420.35C169.411 416.004 172.218 412.418 175.876 410.329C179.534 408.241 183.764 407.809 187.696 409.122C191.629 410.436 194.964 413.395 197.016 417.391V417.39C197.304 417.954 197.566 418.536 197.799 419.131L249.846 551.835C250.682 553.965 250.731 556.382 249.982 558.553C249.234 560.724 247.75 562.472 245.856 563.412L230.289 571.139L230.281 571.119C229.44 571.461 228.552 571.635 227.658 571.636V571.636Z" fill="white"/>
<path d="M155.664 526.066C153.89 526.069 152.189 526.862 150.935 528.273C149.681 529.684 148.976 531.597 148.974 533.592V687.896C148.976 689.891 149.681 691.804 150.935 693.215C152.189 694.626 153.89 695.42 155.664 695.422H172.12C173.894 695.42 175.594 694.626 176.848 693.215C178.103 691.804 178.808 689.891 178.81 687.896V533.592C178.808 531.597 178.103 529.684 176.848 528.273C175.594 526.862 173.894 526.069 172.12 526.066H155.664Z" fill="white"/>
<path d="M123.115 526.066C121.341 526.069 119.641 526.862 118.386 528.273C117.132 529.684 116.427 531.597 116.425 533.592V687.896C116.427 689.891 117.132 691.804 118.386 693.215C119.641 694.626 121.341 695.42 123.115 695.422H139.572C141.345 695.42 143.046 694.626 144.3 693.215C145.554 691.804 146.259 689.891 146.261 687.896V533.592C146.259 531.597 145.554 529.684 144.3 528.273C143.046 526.862 141.345 526.069 139.572 526.066H123.115Z" fill="white"/>
<path d="M147.126 364.406C178.531 364.406 203.99 335.765 203.99 300.434C203.99 265.104 178.531 236.462 147.126 236.462C115.721 236.462 90.2617 265.104 90.2617 300.434C90.2617 335.765 115.721 364.406 147.126 364.406Z" fill="white"/>
<path d="M166.049 327.289C169.735 327.174 174.322 327.03 177.856 324.125C178.909 323.225 179.774 322.077 180.39 320.761C181.006 319.445 181.359 317.993 181.425 316.508C181.488 315.452 181.334 314.394 180.975 313.416C180.615 312.439 180.059 311.568 179.35 310.872C177.504 309.117 174.809 308.706 171.904 309.666L174.914 284.923L172.704 284.583L169.166 313.671L171.011 312.719C173.15 311.615 176.086 311.053 177.911 312.788C178.359 313.241 178.708 313.805 178.931 314.435C179.154 315.065 179.244 315.744 179.196 316.42C179.142 317.525 178.877 318.605 178.419 319.585C177.961 320.565 177.32 321.423 176.541 322.099C173.791 324.359 170.134 324.651 165.987 324.781L166.049 327.289Z" fill="#2F2E41"/>
<path d="M197.85 287.057H185.84V289.566H197.85V287.057Z" fill="#2F2E41"/>
<path d="M159.94 287.057H147.93V289.566H159.94V287.057Z" fill="#2F2E41"/>
<path d="M203.47 572.415L183.003 404.331C182.783 402.529 181.991 400.877 180.772 399.681C179.554 398.486 177.992 397.827 176.375 397.827H160.926C160.99 397.413 161.024 396.993 161.026 396.572V390.301C161.026 388.305 160.321 386.39 159.067 384.979C157.812 383.568 156.111 382.775 154.336 382.775H140.956C139.182 382.775 137.481 383.568 136.226 384.979C134.971 386.39 134.267 388.305 134.267 390.301V396.572C134.269 396.993 134.302 397.413 134.367 397.827H118.918C117.301 397.827 115.739 398.486 114.52 399.681C113.302 400.877 112.509 402.529 112.29 404.331L91.8231 572.415C91.6935 573.48 91.768 574.563 92.0417 575.593C92.3154 576.622 92.7819 577.574 93.4098 578.384C94.0377 579.194 94.8125 579.843 95.6821 580.288C96.5516 580.732 97.4957 580.963 98.451 580.963H196.842C197.797 580.963 198.741 580.732 199.611 580.288C200.48 579.843 201.255 579.194 201.883 578.384C202.511 577.574 202.977 576.622 203.251 575.593C203.525 574.563 203.599 573.48 203.47 572.415V572.415Z" fill="#EC7580"/>
<path d="M171.619 487.668V407.3L172.115 407.238C180.597 406.218 189.122 408.654 196.143 414.105C203.164 419.555 208.214 427.658 210.376 436.942L223.099 474.798L171.619 487.668Z" fill="#EC7580"/>
<path d="M144.262 366.403L104.931 349.228C98.499 346.42 92.0315 343.697 85.6341 340.792C82.8937 339.718 80.3694 338.044 78.2066 335.867C76.3236 333.624 75.0403 330.831 74.5036 327.805C73.1395 321.319 73.3861 314.227 73.4834 307.607C73.5589 300.365 74.0886 293.139 75.0686 285.981C76.7862 272.531 80.8199 259.586 86.9435 247.873C97.9737 227.513 116.978 212.195 138.838 213.417C148.958 213.983 159.137 218.069 166.656 225.853C167.44 226.908 168.321 227.867 169.282 228.716C169.95 228.998 170.677 229.053 171.373 228.874C172.291 228.808 173.209 228.757 174.128 228.722C177.317 228.571 180.512 228.721 183.679 229.173C189.449 229.874 194.919 232.429 199.434 236.532C203.191 240.169 206.249 245.303 206.564 251.008C206.715 253.626 206.331 256.25 205.438 258.675C204.546 261.1 203.171 263.262 201.419 264.994C196.726 269.443 190.031 267.88 184.403 267.544L163.782 266.315L153.335 265.692C151.184 265.564 151.19 269.328 153.335 269.456L181.103 271.111C185.566 271.376 190.165 272.028 194.631 271.727C198.062 271.552 201.339 270.07 203.922 267.522C206.281 265.084 208.039 262 209.023 258.57C210.007 255.141 210.184 251.483 209.538 247.953C208.106 240.254 203.013 233.886 197.043 230.097C188.919 224.942 179.216 224.448 170.126 225.21L171.309 225.761C161.026 213.345 145.275 208.103 130.489 209.938C114.877 211.875 100.991 221.673 91.014 235.072C79.8904 250.01 73.8288 268.638 71.4722 287.792C70.2459 298.134 69.8421 308.578 70.2658 319C70.2484 323.597 70.9473 328.161 72.331 332.486C73.9098 336.695 76.7643 340.138 80.3869 342.202C84.5402 344.458 88.81 346.431 93.1734 348.111L107.664 354.439L136.128 366.868L143.373 370.031C145.381 370.908 146.251 367.271 144.262 366.403Z" fill="#2F2E41"/>
<path d="M82.4199 238.524C79.0018 238.524 75.6605 237.383 72.8184 235.247C69.9764 233.111 67.7613 230.074 66.4532 226.522C65.1452 222.969 64.8029 219.06 65.4698 215.288C66.1366 211.517 67.7826 208.052 70.1995 205.333C72.6165 202.614 75.6959 200.762 79.0483 200.012C82.4008 199.262 85.8756 199.647 89.0335 201.119C92.1915 202.59 94.8906 205.082 96.7896 208.28C98.6886 211.477 99.7022 215.236 99.7022 219.081C99.697 224.236 97.8746 229.178 94.6346 232.823C91.3947 236.468 87.0019 238.518 82.4199 238.524ZM82.4199 203.402C79.6634 203.402 76.9688 204.321 74.6768 206.044C72.3848 207.767 70.5984 210.216 69.5436 213.081C68.4887 215.946 68.2127 219.099 68.7504 222.14C69.2882 225.182 70.6156 227.975 72.5648 230.168C74.514 232.361 76.9973 233.854 79.7009 234.459C82.4045 235.064 85.2068 234.754 87.7535 233.567C90.3002 232.38 92.4769 230.371 94.0084 227.792C95.5398 225.214 96.3572 222.182 96.3572 219.081C96.3531 214.924 94.8833 210.939 92.2705 207.999C89.6576 205.06 86.1151 203.406 82.4199 203.402V203.402Z" fill="#2F2E41"/>
<path d="M371.317 359.011L333.91 326.825L305.301 368.907L342.707 401.093L371.317 359.011Z" fill="#F0F0F0"/>
<path d="M159.911 71.6944C165.822 71.6892 171.651 73.241 176.932 76.2256C182.214 79.2102 186.8 83.5446 190.325 88.8818L212.167 56.7531L146.63 0.362427L96.5054 74.0922L124.752 98.3964C127.578 90.5096 132.436 83.7534 138.701 78.9954C144.966 74.2375 152.352 71.695 159.911 71.6944V71.6944Z" fill="#F0F0F0"/>
<path d="M788.432 697.618H1.25463C0.958919 697.618 0.675318 697.486 0.466218 697.25C0.257119 697.015 0.139648 696.696 0.139648 696.363C0.139648 696.031 0.257119 695.712 0.466218 695.476C0.675318 695.241 0.958919 695.109 1.25463 695.109H788.432C788.728 695.109 789.012 695.241 789.221 695.476C789.43 695.712 789.547 696.031 789.547 696.363C789.547 696.696 789.43 697.015 789.221 697.25C789.012 697.486 788.728 697.618 788.432 697.618Z" fill="#3F3D56"/>
<path d="M596.307 489.482H516.182C513.226 489.478 510.392 488.155 508.302 485.804C506.211 483.452 505.036 480.264 505.032 476.938V470.695C505.036 467.369 506.211 464.181 508.302 461.829C510.392 459.478 513.226 458.155 516.182 458.151H596.307C599.263 458.155 602.097 459.478 604.188 461.829C606.278 464.181 607.454 467.369 607.457 470.695V476.938C607.454 480.264 606.278 483.452 604.188 485.804C602.097 488.155 599.263 489.478 596.307 489.482V489.482Z" fill="white"/>
<path d="M604.749 477.445H524.624C521.52 477.441 518.545 476.052 516.35 473.583C514.155 471.114 512.921 467.766 512.917 464.275V458.031C512.921 454.539 514.155 451.191 516.35 448.722C518.545 446.253 521.52 444.864 524.624 444.86H604.749C607.853 444.864 610.829 446.253 613.024 448.722C615.219 451.191 616.453 454.539 616.457 458.031V464.275C616.453 467.766 615.219 471.114 613.024 473.583C610.829 476.052 607.853 477.441 604.749 477.445V477.445ZM524.624 447.369C522.112 447.372 519.703 448.496 517.926 450.495C516.149 452.494 515.15 455.204 515.147 458.031V464.275C515.15 467.101 516.149 469.811 517.926 471.81C519.703 473.809 522.112 474.933 524.624 474.937H604.749C607.262 474.933 609.671 473.809 611.448 471.81C613.225 469.811 614.224 467.101 614.227 464.275V458.031C614.224 455.204 613.225 452.494 611.448 450.495C609.671 448.496 607.262 447.372 604.749 447.369H524.624Z" fill="#3F3D56"/>
</g>
<defs>
<clipPath id="clip0_33_337">
<rect width="789.408" height="697.255" fill="white" transform="translate(0.139648 0.362427)"/>
</clipPath>
</defs>
</svg>
