<svg width="892" height="684" viewBox="0 0 892 684" fill="none" xmlns="http://www.w3.org/2000/svg">
<g clip-path="url(#clip0_34_382)">
<path opacity="0.1" d="M366.961 673.075C427.183 635.571 495.977 623.586 563.208 639.66C658.475 662.453 778.208 653.519 801.4 477.677C841.008 177.364 675.025 98.0997 675.025 98.0997C675.025 98.0997 564.646 87.6971 499.376 48.0916C406.664 -8.18632 300.691 -15.353 207.51 32.2634C147.921 62.6886 98.8497 105.055 90.4654 163.224C67.0236 325.902 105.523 415.533 33.5019 468.637C-38.519 521.74 23.0312 667.535 78.2444 662.488C133.458 657.44 258.223 602.068 306.841 666.207C324.109 688.956 345.957 686.16 366.961 673.075Z" fill="white"/>
<path opacity="0.1" d="M652.693 132.842H404.21V152.188H652.693V132.842Z" fill="white"/>
<path opacity="0.1" d="M652.693 216.38H404.21V235.725H652.693V216.38Z" fill="white"/>
<path opacity="0.1" d="M652.693 303.434H404.21V322.78H652.693V303.434Z" fill="white"/>
<path opacity="0.1" d="M441.717 82.7196H426.089V132.842H441.717V82.7196Z" fill="white"/>
<path opacity="0.1" d="M441.717 90.6337H426.089V94.151H441.717V90.6337Z" fill="white"/>
<path opacity="0.1" d="M441.717 117.893H426.089V121.411H441.717V117.893Z" fill="white"/>
<path opacity="0.1" d="M465.158 82.7196H449.531V132.842H465.158V82.7196Z" fill="white"/>
<path opacity="0.1" d="M465.158 90.6337H449.531V94.151H465.158V90.6337Z" fill="white"/>
<path opacity="0.1" d="M465.158 117.893H449.531V121.411H465.158V117.893Z" fill="white"/>
<path opacity="0.1" d="M488.6 82.7196H472.972V132.842H488.6V82.7196Z" fill="white"/>
<path opacity="0.1" d="M488.6 90.6337H472.972V94.151H488.6V90.6337Z" fill="white"/>
<path opacity="0.1" d="M488.6 117.893H472.972V121.411H488.6V117.893Z" fill="white"/>
<path opacity="0.1" d="M512.042 82.7196H496.414V132.842H512.042V82.7196Z" fill="white"/>
<path opacity="0.1" d="M512.042 90.6337H496.414V94.151H512.042V90.6337Z" fill="white"/>
<path opacity="0.1" d="M512.042 117.893H496.414V121.411H512.042V117.893Z" fill="white"/>
<path opacity="0.1" d="M535.484 82.7196H519.856V132.842H535.484V82.7196Z" fill="white"/>
<path opacity="0.1" d="M535.484 90.6337H519.856V94.151H535.484V90.6337Z" fill="white"/>
<path opacity="0.1" d="M535.484 117.893H519.856V121.411H535.484V117.893Z" fill="white"/>
<path opacity="0.1" d="M558.926 82.7196H543.298V132.842H558.926V82.7196Z" fill="white"/>
<path opacity="0.1" d="M558.926 90.6337H543.298V94.151H558.926V90.6337Z" fill="white"/>
<path opacity="0.1" d="M558.926 117.893H543.298V121.411H558.926V117.893Z" fill="white"/>
<path opacity="0.1" d="M582.367 82.7196H566.74V132.842H582.367V82.7196Z" fill="white"/>
<path opacity="0.1" d="M582.367 90.6337H566.74V94.151H582.367V90.6337Z" fill="white"/>
<path opacity="0.1" d="M582.367 117.893H566.74V121.411H582.367V117.893Z" fill="white"/>
<path opacity="0.1" d="M573.116 251.993L559.146 259.875L579.109 304.681L593.08 296.798L573.116 251.993Z" fill="white"/>
<path opacity="0.1" d="M576.272 259.073L562.302 266.956L563.703 270.1L577.673 262.217L576.272 259.073Z" fill="white"/>
<path opacity="0.1" d="M587.123 283.444L573.153 291.327L574.554 294.471L588.524 286.588L587.123 283.444Z" fill="white"/>
<path opacity="0.1" d="M441.717 167.136H426.089V217.259H441.717V167.136Z" fill="white"/>
<path opacity="0.1" d="M441.717 175.051H426.089V178.568H441.717V175.051Z" fill="white"/>
<path opacity="0.1" d="M441.717 202.31H426.089V205.827H441.717V202.31Z" fill="white"/>
<path opacity="0.1" d="M465.158 167.136H449.531V217.259H465.158V167.136Z" fill="white"/>
<path opacity="0.1" d="M465.158 175.051H449.531V178.568H465.158V175.051Z" fill="white"/>
<path opacity="0.1" d="M465.158 202.31H449.531V205.827H465.158V202.31Z" fill="white"/>
<path opacity="0.1" d="M488.6 167.136H472.972V217.259H488.6V167.136Z" fill="white"/>
<path opacity="0.1" d="M488.6 175.051H472.972V178.568H488.6V175.051Z" fill="white"/>
<path opacity="0.1" d="M488.6 202.31H472.972V205.827H488.6V202.31Z" fill="white"/>
<path opacity="0.1" d="M586.274 167.136H570.646V217.259H586.274V167.136Z" fill="white"/>
<path opacity="0.1" d="M586.274 175.051H570.646V178.568H586.274V175.051Z" fill="white"/>
<path opacity="0.1" d="M586.274 202.31H570.646V205.827H586.274V202.31Z" fill="white"/>
<path opacity="0.1" d="M609.716 167.136H594.088V217.259H609.716V167.136Z" fill="white"/>
<path opacity="0.1" d="M609.716 175.051H594.088V178.568H609.716V175.051Z" fill="white"/>
<path opacity="0.1" d="M609.716 202.31H594.088V205.827H609.716V202.31Z" fill="white"/>
<path opacity="0.1" d="M633.158 167.136H617.53V217.259H633.158V167.136Z" fill="white"/>
<path opacity="0.1" d="M633.158 175.051H617.53V178.568H633.158V175.051Z" fill="white"/>
<path opacity="0.1" d="M633.158 202.31H617.53V205.827H633.158V202.31Z" fill="white"/>
<path opacity="0.1" d="M441.717 253.312H426.089V303.434H441.717V253.312Z" fill="white"/>
<path opacity="0.1" d="M441.717 261.226H426.089V264.743H441.717V261.226Z" fill="white"/>
<path opacity="0.1" d="M441.717 288.486H426.089V292.003H441.717V288.486Z" fill="white"/>
<path opacity="0.1" d="M465.158 253.312H449.531V303.434H465.158V253.312Z" fill="white"/>
<path opacity="0.1" d="M465.158 261.226H449.531V264.743H465.158V261.226Z" fill="white"/>
<path opacity="0.1" d="M465.158 288.486H449.531V292.003H465.158V288.486Z" fill="white"/>
<path opacity="0.1" d="M488.6 253.312H472.972V303.434H488.6V253.312Z" fill="white"/>
<path opacity="0.1" d="M488.6 261.226H472.972V264.743H488.6V261.226Z" fill="white"/>
<path opacity="0.1" d="M488.6 288.486H472.972V292.003H488.6V288.486Z" fill="white"/>
<path opacity="0.1" d="M512.042 253.312H496.414V303.434H512.042V253.312Z" fill="white"/>
<path opacity="0.1" d="M512.042 261.226H496.414V264.743H512.042V261.226Z" fill="white"/>
<path opacity="0.1" d="M512.042 288.486H496.414V292.003H512.042V288.486Z" fill="white"/>
<path opacity="0.1" d="M535.484 253.312H519.856V303.434H535.484V253.312Z" fill="white"/>
<path opacity="0.1" d="M535.484 261.226H519.856V264.743H535.484V261.226Z" fill="white"/>
<path opacity="0.1" d="M535.484 288.486H519.856V292.003H535.484V288.486Z" fill="white"/>
<path opacity="0.1" d="M558.926 253.312H543.298V303.434H558.926V253.312Z" fill="white"/>
<path opacity="0.1" d="M558.926 261.226H543.298V264.743H558.926V261.226Z" fill="white"/>
<path opacity="0.1" d="M558.926 288.486H543.298V292.003H558.926V288.486Z" fill="white"/>
<path opacity="0.1" d="M605.809 87.1866V132.842H590.181V83.8363C595.411 84.8739 600.621 85.9907 605.809 87.1866Z" fill="white"/>
<path opacity="0.1" d="M605.809 90.6337H590.181V94.151H605.809V90.6337Z" fill="white"/>
<path opacity="0.1" d="M605.809 117.893H590.181V121.411H605.809V117.893Z" fill="white"/>
<path opacity="0.1" d="M629.251 93.2893V132.86H613.623V89.0685C615.655 89.5697 617.678 90.0973 619.702 90.6337C622.901 91.4779 626.084 92.3631 629.251 93.2893Z" fill="white"/>
<path opacity="0.1" d="M629.251 93.2893V94.1686H613.623V90.6512H619.702C622.901 91.4837 626.084 92.363 629.251 93.2893Z" fill="white"/>
<path opacity="0.1" d="M629.251 117.893H613.623V121.411H629.251V117.893Z" fill="white"/>
<g opacity="0.1">
<path opacity="0.1" d="M520.161 199.039C520.161 199.039 515.425 197.227 513.128 201.932C512.527 203.206 512.222 204.629 512.24 206.071C512.257 207.512 512.598 208.926 513.23 210.18C514.73 213.223 517.817 217.215 523.661 216.828C528.623 216.529 530.272 212.273 530.694 208.307C530.856 206.824 530.679 205.318 530.18 203.933C529.681 202.548 528.877 201.329 527.843 200.391C526.809 199.453 525.58 198.826 524.271 198.571C522.963 198.316 521.618 198.441 520.364 198.933L520.161 199.039Z" fill="white"/>
<path opacity="0.1" d="M514.261 210.611C513.629 209.357 513.289 207.943 513.271 206.502C513.253 205.06 513.559 203.636 514.16 202.363C516.441 197.667 521.192 199.47 521.192 199.47L521.434 199.373C523.242 198.637 525.229 198.687 527.006 199.514C526.025 198.857 524.927 198.453 523.79 198.331C522.654 198.209 521.508 198.373 520.434 198.81L520.192 198.907C520.192 198.907 515.457 197.096 513.159 201.8C512.559 203.074 512.253 204.497 512.271 205.939C512.289 207.381 512.629 208.794 513.261 210.048C514.435 212.568 516.321 214.575 518.621 215.755C516.777 214.522 515.269 212.743 514.261 210.611Z" fill="white"/>
<path opacity="0.2" d="M517.715 201.299C517.715 201.299 519.473 202.855 523.739 201.299H517.715Z" fill="white"/>
<path opacity="0.1" d="M517.332 189.999C517.332 189.999 520.34 199.18 520.09 201.58L522.474 201.299C522.474 201.299 518.457 193.253 519.465 189.999H517.332Z" fill="white"/>
<path opacity="0.2" d="M517.332 189.999C517.332 189.999 520.34 199.18 520.09 201.58L522.474 201.299C522.474 201.299 518.457 193.253 519.465 189.999H517.332Z" fill="white"/>
<path opacity="0.1" d="M529.631 190.773C529.631 190.773 524.888 188.047 522.77 190.298C520.653 192.549 520.325 198.309 520.325 198.309C520.325 198.309 528.053 199.487 529.631 190.773Z" fill="white"/>
<path opacity="0.1" d="M529.631 190.773C529.631 190.773 524.888 188.047 522.77 190.298C520.653 192.549 520.325 198.309 520.325 198.309C520.325 198.309 528.053 199.487 529.631 190.773Z" fill="white"/>
<path opacity="0.1" d="M520.317 198.309C520.317 198.309 521.559 191.626 529.623 190.764L520.317 198.309Z" fill="white"/>
</g>
<g opacity="0.1">
<path opacity="0.1" d="M620.179 286.094C620.179 286.094 615.443 284.282 613.146 288.987C612.545 290.26 612.24 291.684 612.258 293.126C612.275 294.567 612.616 295.981 613.248 297.235C614.748 300.278 617.835 304.27 623.679 303.883C628.641 303.584 630.29 299.328 630.712 295.362C630.874 293.879 630.697 292.373 630.198 290.988C629.699 289.603 628.895 288.384 627.861 287.445C626.827 286.507 625.598 285.881 624.289 285.626C622.981 285.371 621.636 285.496 620.382 285.988L620.179 286.094Z" fill="white"/>
<path opacity="0.1" d="M614.279 297.666C613.647 296.412 613.307 294.998 613.289 293.556C613.271 292.115 613.577 290.691 614.178 289.418C616.459 284.722 621.21 286.525 621.21 286.525L621.452 286.428C623.26 285.692 625.247 285.742 627.024 286.569C626.043 285.911 624.945 285.507 623.808 285.386C622.672 285.264 621.526 285.428 620.452 285.865L620.21 285.962C620.21 285.962 615.475 284.15 613.177 288.855C612.577 290.128 612.271 291.552 612.289 292.994C612.307 294.435 612.647 295.849 613.279 297.103C614.453 299.622 616.339 301.63 618.639 302.81C616.795 301.577 615.287 299.797 614.279 297.666Z" fill="white"/>
<path opacity="0.2" d="M617.733 288.354C617.733 288.354 619.491 289.91 623.758 288.354H617.733Z" fill="white"/>
<path opacity="0.1" d="M617.35 277.054C617.35 277.054 620.358 286.235 620.108 288.635L622.492 288.354C622.492 288.354 618.475 280.308 619.483 277.054H617.35Z" fill="white"/>
<path opacity="0.2" d="M617.35 277.054C617.35 277.054 620.358 286.235 620.108 288.635L622.492 288.354C622.492 288.354 618.475 280.308 619.483 277.054H617.35Z" fill="white"/>
<path opacity="0.1" d="M629.649 277.828C629.649 277.828 624.906 275.102 622.789 277.353C620.671 279.604 620.343 285.364 620.343 285.364C620.343 285.364 628.071 286.542 629.649 277.828Z" fill="white"/>
<path opacity="0.1" d="M629.649 277.828C629.649 277.828 624.906 275.102 622.789 277.353C620.671 279.604 620.343 285.364 620.343 285.364C620.343 285.364 628.071 286.542 629.649 277.828Z" fill="white"/>
<path opacity="0.1" d="M620.335 285.364C620.335 285.364 621.577 278.681 629.641 277.819L620.335 285.364Z" fill="white"/>
</g>
<path opacity="0.1" d="M778.301 554.777C801.605 554.777 820.497 547.218 820.497 537.893C820.497 528.569 801.605 521.01 778.301 521.01C754.998 521.01 736.106 528.569 736.106 537.893C736.106 547.218 754.998 554.777 778.301 554.777Z" fill="black"/>
<path d="M778.333 538.034C778.333 538.034 802.407 446.064 773.816 378.363C761.822 349.952 757.837 318.058 763.377 287.228C766.029 272.604 769.866 258.284 774.84 244.448" stroke="#535461" stroke-width="2" stroke-miterlimit="10"/>
<path d="M757.055 201.659C757.055 212.932 775.191 245.626 775.191 245.626C775.191 245.626 793.327 212.941 793.327 201.659C793.327 196.246 791.417 191.055 788.015 187.228C784.614 183.4 780.001 181.25 775.191 181.25C770.381 181.25 765.768 183.4 762.367 187.228C758.966 191.055 757.055 196.246 757.055 201.659Z" fill="white"/>
<path d="M727.073 264.093C732.543 273.554 763.525 289.901 763.525 289.901C763.525 289.901 762.963 251.369 757.516 241.907C756.222 239.655 754.546 237.712 752.584 236.189C750.623 234.666 748.414 233.593 746.083 233.031C743.753 232.469 741.347 232.429 739.003 232.913C736.659 233.397 734.423 234.396 732.422 235.853C730.421 237.309 728.695 239.195 727.341 241.403C725.988 243.61 725.034 246.096 724.535 248.719C724.035 251.341 724 254.048 724.43 256.686C724.86 259.324 725.748 261.841 727.042 264.093H727.073Z" fill="white"/>
<path d="M728.363 370.792C737.31 375.866 771.409 372.357 771.409 372.357C771.409 372.357 753.641 339.417 744.694 334.343C742.567 333.136 740.25 332.413 737.875 332.214C735.5 332.015 733.113 332.344 730.851 333.183C728.589 334.022 726.496 335.354 724.691 337.104C722.887 338.853 721.406 340.985 720.334 343.378C719.261 345.772 718.619 348.379 718.442 351.052C718.265 353.725 718.558 356.411 719.303 358.956C720.049 361.502 721.232 363.857 722.787 365.888C724.341 367.919 726.236 369.585 728.363 370.792Z" fill="white"/>
<path d="M745.553 451.269C753.609 457.97 787.748 461.004 787.748 461.004C787.748 461.004 775.184 425.153 767.128 418.452C765.213 416.858 763.038 415.704 760.727 415.056C758.415 414.408 756.014 414.278 753.658 414.674C751.302 415.071 749.039 415.986 746.998 417.366C744.956 418.747 743.176 420.567 741.76 422.721C740.343 424.876 739.317 427.324 738.741 429.925C738.165 432.526 738.05 435.229 738.403 437.88C738.755 440.53 739.568 443.077 740.795 445.375C742.022 447.672 743.639 449.675 745.553 451.269Z" fill="white"/>
<path d="M801.61 292.082C794.429 299.935 760.978 308.068 760.978 308.068C760.978 308.068 769.175 270.652 776.356 262.8C778.061 260.917 780.081 259.433 782.298 258.431C784.515 257.43 786.886 256.931 789.275 256.964C791.664 256.997 794.024 257.56 796.218 258.622C798.413 259.684 800.4 261.224 802.064 263.153C803.729 265.082 805.038 267.361 805.917 269.861C806.797 272.361 807.228 275.032 807.187 277.72C807.147 280.408 806.634 283.061 805.68 285.525C804.726 287.99 803.348 290.218 801.626 292.082H801.61Z" fill="white"/>
<path d="M820.567 386.488C811.62 391.562 777.52 388.054 777.52 388.054C777.52 388.054 795.289 355.113 804.236 350.04C806.363 348.833 808.68 348.109 811.055 347.91C813.43 347.711 815.817 348.041 818.079 348.88C820.341 349.719 822.434 351.051 824.238 352.8C826.043 354.549 827.524 356.681 828.596 359.075C829.668 361.468 830.311 364.076 830.488 366.748C830.665 369.421 830.372 372.107 829.627 374.653C828.881 377.198 827.697 379.554 826.143 381.585C824.588 383.615 822.694 385.282 820.567 386.488Z" fill="white"/>
<path d="M827.865 481.096C819.809 487.797 785.67 490.831 785.67 490.831C785.67 490.831 798.235 454.98 806.291 448.279C808.203 446.65 810.384 445.463 812.707 444.789C815.03 444.114 817.449 443.965 819.823 444.35C822.197 444.735 824.48 445.646 826.54 447.03C828.599 448.414 830.394 450.245 831.82 452.415C833.247 454.586 834.276 457.053 834.849 459.675C835.423 462.296 835.528 465.019 835.159 467.687C834.791 470.354 833.956 472.913 832.702 475.215C831.449 477.517 829.802 479.516 827.857 481.096H827.865Z" fill="white"/>
<path opacity="0.1" d="M673.282 506.237C696.586 506.237 715.477 498.678 715.477 489.354C715.477 480.029 696.586 472.47 673.282 472.47C649.978 472.47 631.087 480.029 631.087 489.354C631.087 498.678 649.978 506.237 673.282 506.237Z" fill="black"/>
<path d="M671.571 491.754C671.571 491.754 682.847 448.667 669.454 416.949C663.76 403.686 662.044 388.702 664.562 374.248C665.806 367.397 667.606 360.689 669.938 354.208" stroke="#535461" stroke-width="2" stroke-miterlimit="10"/>
<path d="M661.601 334.159C661.601 339.435 670.094 354.753 670.094 354.753C670.094 354.753 678.588 339.435 678.588 334.159C678.588 331.622 677.693 329.19 676.099 327.397C674.506 325.603 672.344 324.596 670.09 324.596C667.837 324.596 665.675 325.603 664.082 327.397C662.488 329.19 661.593 331.622 661.593 334.159H661.601Z" fill="white"/>
<path d="M647.559 363.406C650.106 367.802 664.64 375.496 664.64 375.496C664.64 375.496 664.374 357.444 661.827 353.012C661.221 351.957 660.436 351.048 659.517 350.335C658.598 349.622 657.563 349.12 656.472 348.857C655.381 348.594 654.254 348.576 653.157 348.803C652.059 349.03 651.012 349.498 650.075 350.18C649.138 350.863 648.33 351.746 647.696 352.78C647.063 353.814 646.617 354.978 646.383 356.206C646.149 357.435 646.133 358.702 646.335 359.938C646.536 361.173 646.952 362.351 647.559 363.406Z" fill="white"/>
<path d="M648.168 413.396C652.357 415.77 668.336 414.135 668.336 414.135C668.336 414.135 660.014 398.702 655.834 396.319C654.837 395.754 653.752 395.415 652.639 395.322C651.526 395.229 650.408 395.383 649.348 395.776C647.208 396.57 645.436 398.289 644.422 400.553C643.407 402.818 643.234 405.443 643.939 407.852C644.645 410.26 646.172 412.255 648.184 413.396H648.168Z" fill="white"/>
<path d="M656.201 451.102C659.975 454.242 675.97 455.666 675.97 455.666C675.97 455.666 670.079 438.871 666.312 435.731C665.415 434.985 664.396 434.444 663.313 434.141C662.23 433.838 661.104 433.778 660.001 433.964C658.897 434.15 657.837 434.579 656.881 435.226C655.924 435.874 655.091 436.726 654.427 437.736C653.764 438.746 653.284 439.893 653.014 441.112C652.745 442.33 652.691 443.597 652.857 444.839C653.022 446.081 653.403 447.274 653.978 448.35C654.554 449.426 655.311 450.365 656.209 451.111L656.201 451.102Z" fill="white"/>
<path d="M682.479 376.525C679.111 380.201 663.429 384.017 663.429 384.017C663.429 384.017 667.273 366.483 670.633 362.808C672.25 361.041 674.424 360.069 676.677 360.106C678.93 360.143 681.077 361.186 682.647 363.005C684.217 364.824 685.08 367.271 685.047 369.806C685.015 372.342 684.088 374.759 682.471 376.525H682.479Z" fill="white"/>
<path d="M691.379 420.756C687.191 423.13 671.211 421.495 671.211 421.495C671.211 421.495 679.533 406.062 683.714 403.679C685.726 402.538 688.059 402.343 690.199 403.137C692.339 403.931 694.112 405.649 695.126 407.913C696.14 410.178 696.314 412.803 695.608 415.212C694.903 417.62 693.376 419.615 691.364 420.756H691.379Z" fill="white"/>
<path d="M694.763 465.049C690.989 468.188 674.993 469.612 674.993 469.612C674.993 469.612 680.885 452.817 684.651 449.678C685.548 448.931 686.567 448.39 687.65 448.086C688.732 447.782 689.858 447.72 690.961 447.906C692.065 448.091 693.125 448.519 694.082 449.166C695.038 449.812 695.873 450.665 696.536 451.674C697.2 452.683 697.681 453.83 697.951 455.048C698.221 456.266 698.276 457.533 698.111 458.775C697.946 460.017 697.566 461.21 696.991 462.286C696.417 463.363 695.66 464.302 694.763 465.049Z" fill="white"/>
<path d="M890.283 577.472L648.332 433.041H597.597L610.724 310.073C611.011 307.382 610.819 304.653 610.157 302.046C609.496 299.439 608.379 297.007 606.872 294.892C605.365 292.777 603.498 291.021 601.381 289.728C599.264 288.434 596.938 287.63 594.541 287.36L593.182 287.422H593.049L408.476 290.578C403.752 290.202 399.062 291.734 395.25 294.897C391.438 298.061 388.753 302.649 387.676 307.84L379.08 378.504L377.838 376.367L377.236 375.338C381.776 372.014 372.821 352.255 365.234 337.526L364.546 336.19C369.36 333.93 374.704 331.793 374.704 331.793L362.866 323.475C362.866 323.475 351.974 305.729 340.378 291.335C348.192 236.27 331.689 172.623 331.493 171.744L331.056 171.876C333.347 167.701 334.554 162.889 334.541 157.982C334.542 154.245 333.838 150.55 332.475 147.142C331.112 143.734 329.12 140.691 326.633 138.215C326.172 133.502 325.508 128.648 324.555 123.539C324.383 122.659 324.203 121.683 324.008 120.751C323.117 116.354 322.218 111.958 321.038 107.649C320.221 104.577 319.205 101.576 317.999 98.6708C311.834 84.0122 299.152 73.5304 285.258 69.8372C278.109 67.9378 270.779 70.8836 264.106 69.4767C260.746 68.782 257.738 65.1503 254.464 63.6818C250.315 61.8176 245.822 60.9471 241.43 60.1645C235.96 59.1356 230.28 58.1156 224.833 59.4522C215.847 61.6505 208.995 69.846 203.955 78.4987C198.915 87.1515 195 96.7363 188.772 104.351C184.607 109.452 179.481 113.549 175.77 119.072C170.3 127.197 168.401 137.538 166.643 147.58C164.471 159.935 162.299 172.465 162.345 185.013C162.345 187.924 162.385 190.843 162.611 193.763C163.182 201.255 164.697 208.641 165.057 216.142C165.057 216.951 165.112 217.76 165.127 218.569C165.049 232.296 161.447 245.829 157.868 259.019C156.727 263.213 155.571 267.443 154.219 271.576C147.03 272.262 140.154 273.88 134.911 277.063C115.751 288.6 101.006 314.329 101.006 314.329L72.9776 343.348C72.9776 343.348 84.0422 349.16 89.2072 359.123C89.3921 359.474 89.6039 359.807 89.8401 360.117L89.4338 361.172L72.9776 403.943C72.9776 403.943 83.3076 412.244 98.7636 410.582C101.276 410.229 103.825 410.438 106.265 411.198C106.265 411.725 106.218 412.262 106.202 412.824C105.257 437.297 104.757 490.919 116.009 527.139L90.5824 560.554L39.7919 577.481L37.5806 621.448H891.76L890.283 577.472ZM157.735 413.519C159.914 414.018 162.038 414.779 164.072 415.788V446.354C162.728 435.555 160.861 424.493 158.259 415.295C158.095 414.697 157.946 414.108 157.735 413.519ZM304.395 472.338C304.395 472.233 304.395 472.127 304.395 472.022C304.426 470.955 304.554 469.894 304.778 468.856C305.095 467.248 305.801 465.769 306.817 464.583C308.7 462.463 310.646 460.186 312.592 457.715C313.789 461.195 315.519 464.412 317.702 467.221C320.202 470.36 325.789 473.183 333.634 475.733C323.946 474.041 314.186 472.908 304.395 472.338ZM368.164 468.117L342.628 476.621C330.556 473.578 321.968 470.096 318.788 466.069C316.563 463.182 314.836 459.854 313.693 456.255C322.804 444.366 331.665 428.371 333.697 406.528C333.752 405.957 333.791 405.368 333.838 404.77C336.608 402.998 339.224 400.937 341.652 398.614L342.113 399.828C348.978 417.396 358.69 433.373 370.751 446.943L368.164 468.117ZM330.314 173.16C332.322 181.311 345.941 239.023 339.112 289.769C334.861 284.616 330.571 280.009 326.727 276.975C325.816 276.266 324.863 275.628 323.875 275.067C323.023 265.763 322.632 256.117 322.57 246.559C322.648 234.723 323.273 222.983 324.133 211.816C325.063 199.98 326.157 188.689 326.836 177.583C328.138 176.259 329.304 174.775 330.314 173.16Z" fill="url(#paint0_linear_34_382)"/>
<path d="M317.85 187.37H311.185V135.489H317.85C322.94 135.489 327.821 137.764 331.42 141.814C335.019 145.865 337.041 151.358 337.041 157.086V165.721C337.047 168.561 336.556 171.375 335.594 174.002C334.632 176.628 333.22 179.015 331.437 181.026C329.654 183.037 327.537 184.633 325.205 185.721C322.874 186.81 320.374 187.37 317.85 187.37Z" fill="#DFE6F5"/>
<path d="M310.24 187.37H312.131C314.733 187.37 316.842 184.996 316.842 182.068V140.835C316.842 137.907 314.733 135.533 312.131 135.533H310.24C307.637 135.533 305.528 137.907 305.528 140.835V182.068C305.528 184.996 307.637 187.37 310.24 187.37Z" fill="#535461"/>
<g opacity="0.1">
<path opacity="0.1" d="M317.85 187.37H311.185V135.489H317.85C322.94 135.489 327.821 137.764 331.42 141.814C335.019 145.865 337.041 151.358 337.041 157.085V165.721C337.047 168.561 336.556 171.375 335.594 174.001C334.632 176.628 333.22 179.015 331.437 181.026C329.654 183.037 327.537 184.632 325.205 185.721C322.874 186.81 320.374 187.37 317.85 187.37Z" fill="black"/>
<path opacity="0.1" d="M310.24 187.37H312.131C314.733 187.37 316.842 184.996 316.842 182.068V140.835C316.842 137.907 314.733 135.533 312.131 135.533H310.24C307.637 135.533 305.528 137.907 305.528 140.835V182.068C305.528 184.996 307.637 187.37 310.24 187.37Z" fill="black"/>
</g>
<path d="M321.023 162.951H204.525V298.941H321.023V162.951Z" fill="#865A61"/>
<path opacity="0.1" d="M321.023 144.221H204.525V280.211H321.023V144.221Z" fill="black"/>
<path d="M317.045 275.735L310.013 333.244L306.7 360.275L305.481 370.203L295.268 392.608L276.515 433.726L240.336 438.616L176.7 337.623C176.7 337.623 143.381 265.966 194.039 272.473C222.442 276.131 229.201 247.517 229.709 221.673C229.837 208.661 228.79 195.668 226.584 182.894L277.234 210.585C276.056 216.758 275.171 222.429 274.577 227.6C272.108 248.757 274.155 261.947 278.437 269.94C289.837 291.229 317.045 275.735 317.045 275.735Z" fill="#FDC2CC"/>
<path opacity="0.1" d="M277.249 210.593C276.072 216.766 275.186 222.438 274.593 227.609C269.337 229.292 263.898 230.144 258.433 230.141C248.371 230.16 238.476 227.249 229.709 221.691C229.837 208.679 228.79 195.686 226.584 182.912L277.249 210.593Z" fill="black"/>
<path d="M258.433 228.506C290.804 228.506 317.046 198.975 317.046 162.546C317.046 126.118 290.804 96.5868 258.433 96.5868C226.063 96.5868 199.821 126.118 199.821 162.546C199.821 198.975 226.063 228.506 258.433 228.506Z" fill="#FDC2CC"/>
<path d="M336.588 537.946L95.6223 559.138L134.692 507.837C176.614 479.013 176.254 439.389 170.683 414.812C168.954 406.935 166.341 399.338 162.908 392.204L246.197 392.644H246.9L253.745 410.151L254.057 410.943L259.152 423.966L276.515 388.95L282.555 377.994L285.93 371.838C285.93 371.838 335.861 358.806 336.58 392.195C336.667 396.029 336.534 399.865 336.182 403.679C333.697 430.552 320.632 448.42 309.81 460.599C297.511 474.431 336.588 537.946 336.588 537.946Z" fill="#EC7580"/>
<path d="M307.81 466.403C306.044 474.317 310.498 487.92 316.405 501.278C288.079 504.707 257.019 502.922 257.019 502.922L225.146 512.7L135.427 542.017C131.52 536.328 128.394 529.179 125.808 521.124L134.7 509.447C162.682 490.207 171.824 466.157 173.16 444.982C173.692 435.372 172.858 425.727 170.691 416.412C168.963 408.542 166.353 400.951 162.924 393.822L246.212 394.262H246.916L253.761 411.769L254.073 412.561L259.168 425.584L276.53 390.568L282.555 379.612L285.931 373.456C285.931 373.456 335.861 360.407 336.588 393.822C336.675 397.656 336.542 401.492 336.19 405.306C333.705 432.179 320.64 450.047 309.818 462.226C308.821 463.385 308.126 464.83 307.81 466.403Z" fill="#EC7580"/>
<path d="M495.781 508.629C494.336 528.168 452.367 502.113 452.367 502.113C452.367 502.113 439.341 497.224 395.2 465.471C372.79 449.353 355.118 426.134 344.41 398.738C342.722 394.503 341.309 390.136 340.183 385.67L370.594 360.407L379.463 375.664L408.945 426.358L452.359 458.893C452.359 458.893 497.227 489.09 495.781 508.629Z" fill="#FDC2CC"/>
<path d="M882.18 572.961H47.8636L131.387 545.148L340.19 475.61L473.34 431.264H644.84L882.18 572.961Z" fill="#CBCDDA"/>
<path d="M47.8637 572.961L45.6914 616.12H883.625L882.18 572.961H47.8637Z" fill="#CBCDDA"/>
<path opacity="0.1" d="M47.8637 572.961L45.6914 616.12H883.625L882.18 572.961H47.8637Z" fill="black"/>
<path d="M266.599 511.926L442.951 491.534L445.124 530.621L364.515 539.617C358.955 540.125 353.358 539.635 347.934 538.166L266.45 514.476C266.191 514.4 265.963 514.224 265.805 513.979C265.648 513.733 265.572 513.434 265.59 513.132C265.607 512.831 265.718 512.545 265.902 512.325C266.086 512.105 266.332 511.964 266.599 511.926Z" fill="#535461"/>
<path opacity="0.2" d="M266.599 511.926L442.951 491.534L445.124 530.621L364.515 539.617C358.955 540.125 353.358 539.635 347.934 538.166L266.45 514.476C266.191 514.4 265.963 514.224 265.805 513.979C265.648 513.733 265.572 513.434 265.59 513.132C265.607 512.831 265.718 512.545 265.902 512.325C266.086 512.105 266.332 511.964 266.599 511.926Z" fill="black"/>
<path d="M266.599 511.108L444.405 490.717L446.577 529.803L365.961 537.155C360.404 537.67 354.81 537.189 349.387 535.73L266.45 513.667C266.186 513.595 265.952 513.42 265.791 513.173C265.629 512.927 265.551 512.624 265.568 512.318C265.586 512.012 265.699 511.723 265.888 511.502C266.076 511.28 266.328 511.141 266.599 511.108Z" fill="#535461"/>
<path opacity="0.3" d="M308.755 512.533L402.772 501.752L403.921 522.417L361.296 526.312C358.356 526.582 355.396 526.323 352.529 525.547L308.677 513.879C308.539 513.839 308.418 513.746 308.335 513.617C308.251 513.487 308.211 513.329 308.22 513.169C308.229 513.01 308.288 512.859 308.385 512.743C308.483 512.626 308.614 512.552 308.755 512.533Z" fill="white"/>
<path opacity="0.1" d="M379.463 375.681C378.893 376.561 377.9 376.956 376.385 376.71C361.913 374.265 345.269 397.885 345.269 397.885C345.269 397.885 344.973 398.201 344.433 398.764C342.745 394.529 341.332 390.162 340.206 385.697L370.594 360.407L379.463 375.681Z" fill="black"/>
<path opacity="0.1" d="M336.19 405.253C329.384 409.518 320.015 412.578 312.709 404.374C300.089 390.173 277.968 392.063 276.593 392.151C278.851 391.799 280.851 386.576 282.555 379.577L285.93 373.421C285.93 373.421 335.861 360.407 336.588 393.822C336.673 397.638 336.54 401.456 336.19 405.253Z" fill="black"/>
<path opacity="0.1" d="M309.997 333.244L305.465 370.176L295.253 392.582C288.923 390.758 282.379 390.067 275.858 390.533C283.055 389.417 287.704 338.81 287.704 338.81L288.118 338.705L309.997 333.244Z" fill="black"/>
<path d="M376.384 375.083C361.913 372.639 345.269 396.258 345.269 396.258C345.269 396.258 325.735 417.432 312.709 402.774C300.089 388.572 277.968 390.463 276.593 390.551C283.789 389.425 288.439 338.819 288.439 338.819L288.853 338.714L358.295 321.338C358.295 321.338 362.437 328.478 367.109 337.57C375.541 353.953 385.699 376.657 376.384 375.083Z" fill="#EC7580"/>
<path opacity="0.1" d="M359.014 342.512C359.741 344.139 347.434 352.282 341.651 349.837C335.869 347.393 321.39 360.389 319.944 362.051C318.499 363.713 285.938 359.607 285.938 359.607C287.289 352.716 288.263 345.739 288.853 338.714L358.295 321.338C358.295 321.338 362.437 328.478 367.109 337.57C362.788 339.567 358.662 341.712 359.014 342.512Z" fill="black"/>
<path opacity="0.1" d="M317.046 275.735L310.013 333.244L306.7 360.275C296.995 359.457 285.227 357.989 285.227 357.989C285.227 357.989 297.526 300.172 277.265 270.054C277.265 270.054 277.695 270.054 278.468 269.967C289.837 291.229 317.046 275.735 317.046 275.735Z" fill="black"/>
<path d="M277.976 270.037C277.976 270.037 314.881 266.783 329.352 278.18C343.824 289.576 364.812 323.782 364.812 323.782L376.392 331.925C376.392 331.925 358.303 339.25 359.03 340.886C359.756 342.521 347.449 350.655 341.667 348.211C335.885 345.766 321.406 358.763 319.96 360.425C318.514 362.087 285.954 357.98 285.954 357.98C285.954 357.98 298.237 300.163 277.976 270.037Z" fill="#EC7580"/>
<path d="M544.603 494.375C536.226 494.146 339.292 488.395 320.491 464.794C300.472 439.662 319.905 367.248 336.268 314.963C354.076 258.043 332.845 176.308 332.634 175.376L334.033 174.963C334.252 175.903 355.592 258.113 337.635 315.499C312.185 396.847 306.926 445.325 321.57 463.703C339.964 486.786 542.594 492.721 544.642 492.721L544.603 494.375Z" fill="#DFE6F5"/>
<path d="M408.453 291.475L590.627 288.362C592.975 288.632 595.252 289.425 597.325 290.696C599.398 291.967 601.225 293.69 602.7 295.765C604.174 297.839 605.267 300.223 605.913 302.778C606.56 305.333 606.748 308.007 606.466 310.645L585.798 504.276C585.304 508.928 583.374 513.237 580.345 516.451C577.316 519.665 573.38 521.581 569.224 521.863L383.026 534.833C380.39 535.011 377.751 534.525 375.303 533.411C372.854 532.297 370.657 530.583 368.871 528.393C367.085 526.203 365.756 523.593 364.979 520.752C364.203 517.911 363.999 514.911 364.382 511.97L389.106 308.473C389.768 303.383 392.149 298.776 395.752 295.611C399.355 292.445 403.904 290.964 408.453 291.475Z" fill="#535461"/>
<path opacity="0.2" d="M408.453 291.475L590.627 288.362C592.975 288.632 595.252 289.425 597.325 290.696C599.398 291.967 601.225 293.69 602.7 295.765C604.174 297.839 605.267 300.223 605.913 302.778C606.56 305.333 606.748 308.007 606.466 310.645L585.798 504.276C585.304 508.928 583.374 513.237 580.345 516.451C577.316 519.665 573.38 521.581 569.224 521.863L383.026 534.833C380.39 535.011 377.751 534.525 375.303 533.411C372.854 532.297 370.657 530.583 368.871 528.393C367.085 526.203 365.756 523.593 364.979 520.752C364.203 517.911 363.999 514.911 364.382 511.97L389.106 308.473C389.768 303.383 392.149 298.776 395.752 295.611C399.355 292.445 403.904 290.964 408.453 291.475Z" fill="black"/>
<path d="M409.898 291.475L592.072 288.362C594.423 288.628 596.704 289.418 598.78 290.687C600.857 291.956 602.688 293.678 604.165 295.753C605.643 297.828 606.738 300.214 607.387 302.771C608.035 305.328 608.224 308.005 607.942 310.645L587.274 504.276C586.78 508.928 584.85 513.237 581.821 516.451C578.793 519.665 574.857 521.581 570.701 521.863L384.48 534.833C381.843 535.011 379.205 534.525 376.756 533.411C374.308 532.297 372.11 530.583 370.325 528.393C368.539 526.203 367.209 523.593 366.433 520.752C365.656 517.911 365.452 514.911 365.836 511.97L390.559 308.473C391.222 303.385 393.601 298.779 397.203 295.614C400.804 292.449 405.351 290.966 409.898 291.475Z" fill="#535461"/>
<path opacity="0.3" d="M499.032 411.312C503.826 411.312 507.713 406.938 507.713 401.543C507.713 396.147 503.826 391.773 499.032 391.773C494.237 391.773 490.351 396.147 490.351 401.543C490.351 406.938 494.237 411.312 499.032 411.312Z" fill="white"/>
<path opacity="0.1" d="M316.405 501.286C288.079 504.716 257.019 502.931 257.019 502.931L225.146 512.7L135.427 542.017C131.52 536.328 128.394 529.179 125.808 521.124L134.7 509.447C162.682 490.207 171.824 466.157 173.16 444.982C175.551 466.042 175.95 485.01 175.95 485.01L212.128 480.938L264.692 466.869C268.312 465.9 272.02 465.413 275.741 465.418C282.586 465.418 294.768 465.585 307.778 466.376C306.044 474.299 310.498 487.912 316.405 501.286Z" fill="black"/>
<path opacity="0.1" d="M356.123 490.717C339.479 512.7 254.097 507.82 254.097 507.82L222.255 517.589L132.528 546.898C132.137 546.326 131.746 545.746 131.387 545.139L340.198 475.601C353.529 478.626 361.71 483.339 356.123 490.717Z" fill="black"/>
<path d="M356.123 489.09C339.479 511.073 254.097 506.193 254.097 506.193L222.255 515.954L132.528 545.271C111.43 514.494 111.899 441.148 113.047 411.479C113.36 403.512 113.712 398.694 113.712 398.694C113.712 398.694 144.1 377.519 157.853 398.694C160.306 402.466 162.361 407.742 164.104 413.862C172.082 442.08 173.058 488.263 173.058 488.263L209.237 484.192L261.801 470.122C265.423 469.153 269.134 468.666 272.858 468.672C294.643 468.742 370.407 470.219 356.123 489.09Z" fill="#FDC2CC"/>
<path opacity="0.1" d="M164.096 413.871C159.478 412.745 153.875 412.992 146.28 416.615C131.082 423.939 119.509 422.313 119.509 422.313C119.509 422.313 120.439 414.003 113.055 411.479C113.368 403.512 113.719 398.694 113.719 398.694C113.719 398.694 144.108 377.519 157.86 398.694C160.29 402.466 162.361 407.742 164.096 413.871Z" fill="black"/>
<path opacity="0.1" d="M254.058 412.543C253.573 412.657 247.064 414.038 234.523 410.908C221.497 407.654 216.434 414.161 209.198 417.423C201.962 420.686 183.185 422.313 175.918 419.059C174.207 418.285 172.488 417.3 170.667 416.421C168.948 408.549 166.346 400.955 162.924 393.822L246.212 394.262L253.761 411.769L254.058 412.543Z" fill="black"/>
<path d="M254.058 410.916C254.058 410.916 247.549 412.543 234.523 409.29C221.497 406.036 216.433 412.543 209.198 415.805C201.962 419.068 183.146 420.695 175.91 417.432C168.675 414.17 161.439 407.663 146.218 414.988C130.996 422.313 119.447 420.686 119.447 420.686C119.447 420.686 120.893 407.654 105.702 409.254C90.5121 410.855 80.3774 402.738 80.3774 402.738L96.521 360.776L101.366 348.175L222.435 338.863H223.013L254.058 410.916Z" fill="#EC7580"/>
<path opacity="0.1" d="M234.523 371.838C226.56 357.18 184.592 370.212 184.592 370.212C184.592 370.212 164.33 376.727 159.986 364.513C155.641 352.299 124.573 360.407 124.573 360.407C124.573 360.407 102.03 369.921 96.5757 360.794L101.42 348.193L222.435 338.863L234.523 371.838Z" fill="black"/>
<path d="M199.821 275.735C199.821 275.735 160.025 266.775 141.217 278.18C122.409 289.585 107.937 314.822 107.937 314.822L80.4321 343.321C80.4321 343.321 91.2857 349.019 96.3491 358.789C101.413 368.558 124.573 358.789 124.573 358.789C124.573 358.789 155.688 350.646 160.033 362.86C164.377 375.074 184.639 368.558 184.639 368.558C184.639 368.558 226.607 355.527 234.57 370.185L199.821 275.735Z" fill="#EC7580"/>
<path opacity="0.1" d="M245.697 67.0848C240.305 66.0648 234.757 65.0712 229.412 66.3814C220.598 68.5358 213.878 76.5817 208.932 85.0586C203.986 93.5354 200.141 102.944 194.039 110.41C189.952 115.413 184.928 119.432 181.286 124.849C175.926 132.824 174.059 142.998 172.332 152.812C169.8 167.216 167.26 181.83 168.378 196.489C168.94 203.84 170.425 211.077 170.777 218.472C171.488 233.324 167.589 247.904 163.744 262.132C161.08 271.963 158.329 281.978 153.063 290.376C149.57 295.942 145.092 300.603 140.826 305.43C139.796 306.415 139.021 307.694 138.583 309.132C137.661 313.336 142.17 316.167 145.616 318.067C156.157 323.985 163.072 335.53 171.269 345.045C179.466 354.559 191.195 362.728 202.47 358.912C205.814 357.778 208.987 355.623 212.472 355.694C214.816 355.738 217.066 356.81 219.293 357.69C224.834 359.879 230.667 360.98 236.539 360.943C237.836 361.068 239.137 360.762 240.282 360.064C242.024 358.736 242.36 356.063 242.532 353.706C243.634 338.916 244.728 324.073 243.985 309.256C242.305 275.7 214.754 236.886 225.232 205.397C229.788 191.661 238.117 179.843 242.727 166.134C247.588 151.686 264.724 139.956 268.123 124.981C268.506 123.292 269.029 121.463 270.342 120.584C272.147 119.335 274.499 120.426 276.241 121.78C286.102 129.43 289.314 143.816 292.901 156.672C295.791 167.027 299.372 177.121 303.613 186.869C305.958 192.145 310.99 198.256 315.397 195.055C313.178 217.285 300.363 236.701 297.464 258.825C294.635 280.387 301.488 302.423 298.831 324.002C297.082 337.896 291.492 350.817 282.852 360.935C292.602 363.114 302.629 363.216 312.412 361.234C322.328 359.22 332.939 353.935 336.518 343.33C340.425 331.661 334.385 319.139 331.314 307.145C323.945 278.312 324.516 244.211 326.852 214.322C329.259 183.589 332.869 156.681 326.751 126.607C325.25 119.23 323.727 111.791 320.851 104.949C314.803 90.5721 302.363 80.2838 288.728 76.6609C281.695 74.7967 274.522 77.6897 267.974 76.3179C264.677 75.6232 261.723 72.0707 258.519 70.6286C254.409 68.738 250.002 67.8938 245.697 67.0848Z" fill="black"/>
<path d="M336.479 341.642C332.9 352.247 322.289 357.531 312.365 359.545C302.581 361.523 292.555 361.422 282.805 359.246C291.442 349.126 297.032 336.206 298.784 322.314C301.449 300.726 294.596 278.69 297.417 257.137C300.316 235.004 313.131 215.588 315.35 193.358C310.943 196.559 305.872 190.474 303.559 185.172C299.319 175.423 295.738 165.329 292.846 154.975C289.259 142.119 286.048 127.715 276.187 120.083C274.444 118.729 272.092 117.638 270.287 118.896C268.967 119.775 268.451 121.63 268.068 123.292C264.677 138.241 247.533 149.989 242.68 164.437C238.062 178.146 229.733 189.938 225.177 203.699C214.738 235.18 242.29 273.994 243.931 307.55C244.665 322.367 243.571 337.219 242.477 352C242.298 354.366 241.962 357.039 240.219 358.367C239.077 359.064 237.779 359.37 236.484 359.246C230.629 359.286 224.811 358.191 219.286 356.01C217.059 355.131 214.824 354.058 212.464 354.014C208.979 353.953 205.807 356.107 202.462 357.233C191.187 361.049 179.45 352.88 171.261 343.365C163.072 333.851 156.133 322.323 145.6 316.44C142.154 314.505 137.646 311.709 138.568 307.497C139.009 306.063 139.784 304.788 140.81 303.804C145.077 298.976 149.562 294.307 153.055 288.749C158.321 280.352 161.064 270.336 163.736 260.505C167.596 246.277 171.496 231.698 170.769 216.846C170.425 209.485 168.94 202.248 168.37 194.862C167.245 180.23 169.792 165.598 172.324 151.194C174.043 141.38 175.91 131.206 181.279 123.231C184.928 117.814 189.944 113.795 194.039 108.792C200.149 101.326 203.978 91.9175 208.932 83.4318C213.886 74.9462 220.606 66.909 229.42 64.7546C234.757 63.4444 240.313 64.4468 245.704 65.4581C250.01 66.2759 254.417 67.12 258.488 68.9754C261.7 70.4176 264.653 73.9789 267.943 74.656C274.491 76.0365 281.688 73.1435 288.697 75.0077C302.332 78.6218 314.772 88.9101 320.82 103.287C322.003 106.133 323.001 109.072 323.805 112.081C324.961 116.302 325.844 120.619 326.719 124.928C326.907 125.807 327.086 126.757 327.258 127.663C332.611 156.294 329.157 177.143 326.821 206.927C324.484 236.71 323.914 276.614 331.275 305.413C334.346 317.442 340.417 329.973 336.479 341.642Z" fill="#865A61"/>
<path opacity="0.05" d="M253.01 393.409C253.01 393.409 258.801 403.961 258.801 411.321C258.801 411.321 263.145 393.409 266.763 393.409" fill="black"/>
<path d="M239.258 395.844V449.59C239.269 458.369 236.642 466.894 231.803 473.78C230.977 474.955 230.092 476.076 229.154 477.14C225.927 480.787 222.092 483.682 217.868 485.657C213.644 487.632 209.115 488.649 204.541 488.649C199.967 488.649 195.438 487.632 191.214 485.657C186.99 483.682 183.154 480.787 179.927 477.14C178.989 476.076 178.104 474.955 177.278 473.78C172.439 466.894 169.812 458.369 169.823 449.59V395.844C169.807 386.712 172.648 377.865 177.848 370.854C178.771 369.609 179.766 368.434 180.825 367.336C187.257 360.55 195.743 356.773 204.56 356.773C213.377 356.773 221.863 360.55 228.295 367.336C228.576 367.618 228.85 367.925 229.123 368.216C229.905 369.095 230.584 369.974 231.272 370.854C236.458 377.871 239.285 386.717 239.258 395.844Z" fill="#DFE6F5"/>
<path opacity="0.1" d="M239.258 395.844V449.59C239.269 458.369 236.642 466.894 231.803 473.78C230.977 474.955 230.092 476.076 229.154 477.14C225.927 480.787 222.092 483.682 217.868 485.657C213.644 487.632 209.115 488.649 204.541 488.649C199.967 488.649 195.438 487.632 191.214 485.657C186.99 483.682 183.154 480.787 179.927 477.14C178.989 476.076 178.104 474.955 177.278 473.78C172.439 466.894 169.812 458.369 169.823 449.59V395.844C169.807 386.712 172.648 377.865 177.848 370.854C178.771 369.609 179.766 368.434 180.825 367.336C187.257 360.55 195.743 356.773 204.56 356.773C213.377 356.773 221.863 360.55 228.295 367.336C228.576 367.618 228.85 367.925 229.123 368.216C229.905 369.095 230.584 369.974 231.272 370.854C236.458 377.871 239.285 386.717 239.258 395.844Z" fill="black"/>
<path d="M240.711 395.844V449.59C240.723 458.369 238.095 466.894 233.257 473.78C232.43 474.955 231.546 476.076 230.608 477.14C227.381 480.787 223.545 483.682 219.321 485.657C215.097 487.632 210.568 488.649 205.994 488.649C201.42 488.649 196.891 487.632 192.667 485.657C188.443 483.682 184.607 480.787 181.38 477.14C180.442 476.076 179.558 474.955 178.731 473.78C173.876 466.901 171.232 458.375 171.23 449.59V395.844C171.213 386.712 174.054 377.865 179.255 370.854C180.178 369.609 181.172 368.434 182.232 367.336C188.664 360.55 197.15 356.773 205.967 356.773C214.783 356.773 223.269 360.55 229.701 367.336C229.983 367.618 230.256 367.925 230.53 368.216C231.311 369.095 231.991 369.974 232.679 370.854C237.882 377.863 240.726 386.711 240.711 395.844Z" fill="#DFE6F5"/>
<path opacity="0.1" d="M190.773 371.416C191.972 371.416 192.945 370.322 192.945 368.972C192.945 367.622 191.972 366.527 190.773 366.527C189.573 366.527 188.6 367.622 188.6 368.972C188.6 370.322 189.573 371.416 190.773 371.416Z" fill="black"/>
<path opacity="0.1" d="M190.773 379.559C191.972 379.559 192.945 378.465 192.945 377.114C192.945 375.764 191.972 374.67 190.773 374.67C189.573 374.67 188.6 375.764 188.6 377.114C188.6 378.465 189.573 379.559 190.773 379.559Z" fill="black"/>
<path opacity="0.1" d="M190.773 387.702C191.972 387.702 192.945 386.607 192.945 385.257C192.945 383.907 191.972 382.812 190.773 382.812C189.573 382.812 188.6 383.907 188.6 385.257C188.6 386.607 189.573 387.702 190.773 387.702Z" fill="black"/>
<path opacity="0.1" d="M190.773 395.844C191.972 395.844 192.945 394.75 192.945 393.4C192.945 392.05 191.972 390.955 190.773 390.955C189.573 390.955 188.6 392.05 188.6 393.4C188.6 394.75 189.573 395.844 190.773 395.844Z" fill="black"/>
<path opacity="0.1" d="M190.773 403.987C191.972 403.987 192.945 402.893 192.945 401.543C192.945 400.192 191.972 399.098 190.773 399.098C189.573 399.098 188.6 400.192 188.6 401.543C188.6 402.893 189.573 403.987 190.773 403.987Z" fill="black"/>
<path opacity="0.1" d="M190.773 412.13C191.972 412.13 192.945 411.035 192.945 409.685C192.945 408.335 191.972 407.241 190.773 407.241C189.573 407.241 188.6 408.335 188.6 409.685C188.6 411.035 189.573 412.13 190.773 412.13Z" fill="black"/>
<path opacity="0.1" d="M190.773 420.272C191.972 420.272 192.945 419.178 192.945 417.828C192.945 416.478 191.972 415.383 190.773 415.383C189.573 415.383 188.6 416.478 188.6 417.828C188.6 419.178 189.573 420.272 190.773 420.272Z" fill="black"/>
<path opacity="0.1" d="M190.773 428.424C191.972 428.424 192.945 427.33 192.945 425.979C192.945 424.629 191.972 423.535 190.773 423.535C189.573 423.535 188.6 424.629 188.6 425.979C188.6 427.33 189.573 428.424 190.773 428.424Z" fill="black"/>
<path opacity="0.1" d="M190.773 436.567C191.972 436.567 192.945 435.472 192.945 434.122C192.945 432.772 191.972 431.677 190.773 431.677C189.573 431.677 188.6 432.772 188.6 434.122C188.6 435.472 189.573 436.567 190.773 436.567Z" fill="black"/>
<path opacity="0.1" d="M190.773 444.709C191.972 444.709 192.945 443.615 192.945 442.265C192.945 440.915 191.972 439.82 190.773 439.82C189.573 439.82 188.6 440.915 188.6 442.265C188.6 443.615 189.573 444.709 190.773 444.709Z" fill="black"/>
<path opacity="0.1" d="M190.773 452.852C191.972 452.852 192.945 451.758 192.945 450.408C192.945 449.057 191.972 447.963 190.773 447.963C189.573 447.963 188.6 449.057 188.6 450.408C188.6 451.758 189.573 452.852 190.773 452.852Z" fill="black"/>
<path opacity="0.1" d="M190.773 460.995C191.972 460.995 192.945 459.9 192.945 458.55C192.945 457.2 191.972 456.106 190.773 456.106C189.573 456.106 188.6 457.2 188.6 458.55C188.6 459.9 189.573 460.995 190.773 460.995Z" fill="black"/>
<path opacity="0.1" d="M190.773 469.138C191.972 469.138 192.945 468.043 192.945 466.693C192.945 465.343 191.972 464.249 190.773 464.249C189.573 464.249 188.6 465.343 188.6 466.693C188.6 468.043 189.573 469.138 190.773 469.138Z" fill="black"/>
<path opacity="0.1" d="M190.773 477.28C191.972 477.28 192.945 476.186 192.945 474.836C192.945 473.486 191.972 472.391 190.773 472.391C189.573 472.391 188.6 473.486 188.6 474.836C188.6 476.186 189.573 477.28 190.773 477.28Z" fill="black"/>
<path opacity="0.1" d="M182.818 368.972C182.817 369.435 182.7 369.889 182.479 370.28C182.258 370.671 181.943 370.983 181.57 371.181C181.198 371.378 180.783 371.452 180.374 371.394C179.966 371.336 179.58 371.149 179.263 370.854C180.186 369.609 181.18 368.434 182.24 367.336C182.61 367.779 182.817 368.364 182.818 368.972Z" fill="black"/>
<path opacity="0.1" d="M180.646 379.559C181.845 379.559 182.818 378.465 182.818 377.114C182.818 375.764 181.845 374.67 180.646 374.67C179.446 374.67 178.473 375.764 178.473 377.114C178.473 378.465 179.446 379.559 180.646 379.559Z" fill="black"/>
<path opacity="0.1" d="M180.646 387.702C181.845 387.702 182.818 386.607 182.818 385.257C182.818 383.907 181.845 382.812 180.646 382.812C179.446 382.812 178.473 383.907 178.473 385.257C178.473 386.607 179.446 387.702 180.646 387.702Z" fill="black"/>
<path opacity="0.1" d="M180.646 395.844C181.845 395.844 182.818 394.75 182.818 393.4C182.818 392.05 181.845 390.955 180.646 390.955C179.446 390.955 178.473 392.05 178.473 393.4C178.473 394.75 179.446 395.844 180.646 395.844Z" fill="black"/>
<path opacity="0.1" d="M180.646 403.987C181.845 403.987 182.818 402.893 182.818 401.543C182.818 400.192 181.845 399.098 180.646 399.098C179.446 399.098 178.473 400.192 178.473 401.543C178.473 402.893 179.446 403.987 180.646 403.987Z" fill="black"/>
<path opacity="0.1" d="M180.646 412.13C181.845 412.13 182.818 411.035 182.818 409.685C182.818 408.335 181.845 407.241 180.646 407.241C179.446 407.241 178.473 408.335 178.473 409.685C178.473 411.035 179.446 412.13 180.646 412.13Z" fill="black"/>
<path opacity="0.1" d="M180.646 420.272C181.845 420.272 182.818 419.178 182.818 417.828C182.818 416.478 181.845 415.383 180.646 415.383C179.446 415.383 178.473 416.478 178.473 417.828C178.473 419.178 179.446 420.272 180.646 420.272Z" fill="black"/>
<path opacity="0.1" d="M180.646 428.424C181.845 428.424 182.818 427.33 182.818 425.979C182.818 424.629 181.845 423.535 180.646 423.535C179.446 423.535 178.473 424.629 178.473 425.979C178.473 427.33 179.446 428.424 180.646 428.424Z" fill="black"/>
<path opacity="0.1" d="M180.646 436.567C181.845 436.567 182.818 435.472 182.818 434.122C182.818 432.772 181.845 431.677 180.646 431.677C179.446 431.677 178.473 432.772 178.473 434.122C178.473 435.472 179.446 436.567 180.646 436.567Z" fill="black"/>
<path opacity="0.1" d="M180.646 444.709C181.845 444.709 182.818 443.615 182.818 442.265C182.818 440.915 181.845 439.82 180.646 439.82C179.446 439.82 178.473 440.915 178.473 442.265C178.473 443.615 179.446 444.709 180.646 444.709Z" fill="black"/>
<path opacity="0.1" d="M180.646 452.852C181.845 452.852 182.818 451.758 182.818 450.408C182.818 449.057 181.845 447.963 180.646 447.963C179.446 447.963 178.473 449.057 178.473 450.408C178.473 451.758 179.446 452.852 180.646 452.852Z" fill="black"/>
<path opacity="0.1" d="M180.646 460.995C181.845 460.995 182.818 459.9 182.818 458.55C182.818 457.2 181.845 456.106 180.646 456.106C179.446 456.106 178.473 457.2 178.473 458.55C178.473 459.9 179.446 460.995 180.646 460.995Z" fill="black"/>
<path opacity="0.1" d="M180.646 469.138C181.845 469.138 182.818 468.043 182.818 466.693C182.818 465.343 181.845 464.249 180.646 464.249C179.446 464.249 178.473 465.343 178.473 466.693C178.473 468.043 179.446 469.138 180.646 469.138Z" fill="black"/>
<path opacity="0.1" d="M182.818 474.836C182.818 475.347 182.676 475.845 182.411 476.26C182.146 476.675 181.772 476.986 181.341 477.148C180.403 476.085 179.519 474.964 178.692 473.789C178.901 473.286 179.257 472.878 179.7 472.633C180.143 472.388 180.648 472.321 181.129 472.443C181.611 472.565 182.041 472.869 182.348 473.305C182.656 473.74 182.821 474.28 182.818 474.836Z" fill="black"/>
<path opacity="0.1" d="M200.907 371.416C202.107 371.416 203.079 370.322 203.079 368.972C203.079 367.622 202.107 366.527 200.907 366.527C199.707 366.527 198.735 367.622 198.735 368.972C198.735 370.322 199.707 371.416 200.907 371.416Z" fill="black"/>
<path opacity="0.1" d="M200.907 379.559C202.107 379.559 203.079 378.465 203.079 377.114C203.079 375.764 202.107 374.67 200.907 374.67C199.707 374.67 198.735 375.764 198.735 377.114C198.735 378.465 199.707 379.559 200.907 379.559Z" fill="black"/>
<path opacity="0.1" d="M200.907 387.702C202.107 387.702 203.079 386.607 203.079 385.257C203.079 383.907 202.107 382.812 200.907 382.812C199.707 382.812 198.735 383.907 198.735 385.257C198.735 386.607 199.707 387.702 200.907 387.702Z" fill="black"/>
<path opacity="0.1" d="M200.907 395.844C202.107 395.844 203.079 394.75 203.079 393.4C203.079 392.05 202.107 390.955 200.907 390.955C199.707 390.955 198.735 392.05 198.735 393.4C198.735 394.75 199.707 395.844 200.907 395.844Z" fill="black"/>
<path opacity="0.1" d="M200.907 403.987C202.107 403.987 203.079 402.893 203.079 401.543C203.079 400.192 202.107 399.098 200.907 399.098C199.707 399.098 198.735 400.192 198.735 401.543C198.735 402.893 199.707 403.987 200.907 403.987Z" fill="black"/>
<path opacity="0.1" d="M200.907 412.13C202.107 412.13 203.079 411.035 203.079 409.685C203.079 408.335 202.107 407.241 200.907 407.241C199.707 407.241 198.735 408.335 198.735 409.685C198.735 411.035 199.707 412.13 200.907 412.13Z" fill="black"/>
<path opacity="0.1" d="M200.907 420.272C202.107 420.272 203.079 419.178 203.079 417.828C203.079 416.478 202.107 415.383 200.907 415.383C199.707 415.383 198.735 416.478 198.735 417.828C198.735 419.178 199.707 420.272 200.907 420.272Z" fill="black"/>
<path opacity="0.1" d="M200.907 428.424C202.107 428.424 203.079 427.33 203.079 425.979C203.079 424.629 202.107 423.535 200.907 423.535C199.707 423.535 198.735 424.629 198.735 425.979C198.735 427.33 199.707 428.424 200.907 428.424Z" fill="black"/>
<path opacity="0.1" d="M200.907 436.567C202.107 436.567 203.079 435.472 203.079 434.122C203.079 432.772 202.107 431.677 200.907 431.677C199.707 431.677 198.735 432.772 198.735 434.122C198.735 435.472 199.707 436.567 200.907 436.567Z" fill="black"/>
<path opacity="0.1" d="M200.907 444.709C202.107 444.709 203.079 443.615 203.079 442.265C203.079 440.915 202.107 439.82 200.907 439.82C199.707 439.82 198.735 440.915 198.735 442.265C198.735 443.615 199.707 444.709 200.907 444.709Z" fill="black"/>
<path opacity="0.1" d="M200.907 452.852C202.107 452.852 203.079 451.758 203.079 450.408C203.079 449.057 202.107 447.963 200.907 447.963C199.707 447.963 198.735 449.057 198.735 450.408C198.735 451.758 199.707 452.852 200.907 452.852Z" fill="black"/>
<path opacity="0.1" d="M200.907 460.995C202.107 460.995 203.079 459.9 203.079 458.55C203.079 457.2 202.107 456.106 200.907 456.106C199.707 456.106 198.735 457.2 198.735 458.55C198.735 459.9 199.707 460.995 200.907 460.995Z" fill="black"/>
<path opacity="0.1" d="M200.907 469.138C202.107 469.138 203.079 468.043 203.079 466.693C203.079 465.343 202.107 464.249 200.907 464.249C199.707 464.249 198.735 465.343 198.735 466.693C198.735 468.043 199.707 469.138 200.907 469.138Z" fill="black"/>
<path opacity="0.1" d="M200.907 477.28C202.107 477.28 203.079 476.186 203.079 474.836C203.079 473.486 202.107 472.391 200.907 472.391C199.707 472.391 198.735 473.486 198.735 474.836C198.735 476.186 199.707 477.28 200.907 477.28Z" fill="black"/>
<path opacity="0.1" d="M211.034 371.416C212.234 371.416 213.206 370.322 213.206 368.972C213.206 367.622 212.234 366.527 211.034 366.527C209.834 366.527 208.862 367.622 208.862 368.972C208.862 370.322 209.834 371.416 211.034 371.416Z" fill="black"/>
<path opacity="0.1" d="M211.034 379.559C212.234 379.559 213.206 378.465 213.206 377.114C213.206 375.764 212.234 374.67 211.034 374.67C209.834 374.67 208.862 375.764 208.862 377.114C208.862 378.465 209.834 379.559 211.034 379.559Z" fill="black"/>
<path opacity="0.1" d="M211.034 387.702C212.234 387.702 213.206 386.607 213.206 385.257C213.206 383.907 212.234 382.812 211.034 382.812C209.834 382.812 208.862 383.907 208.862 385.257C208.862 386.607 209.834 387.702 211.034 387.702Z" fill="black"/>
<path opacity="0.1" d="M211.034 395.844C212.234 395.844 213.206 394.75 213.206 393.4C213.206 392.05 212.234 390.955 211.034 390.955C209.834 390.955 208.862 392.05 208.862 393.4C208.862 394.75 209.834 395.844 211.034 395.844Z" fill="black"/>
<path opacity="0.1" d="M211.034 403.987C212.234 403.987 213.206 402.893 213.206 401.543C213.206 400.192 212.234 399.098 211.034 399.098C209.834 399.098 208.862 400.192 208.862 401.543C208.862 402.893 209.834 403.987 211.034 403.987Z" fill="black"/>
<path opacity="0.1" d="M211.034 412.13C212.234 412.13 213.206 411.035 213.206 409.685C213.206 408.335 212.234 407.241 211.034 407.241C209.834 407.241 208.862 408.335 208.862 409.685C208.862 411.035 209.834 412.13 211.034 412.13Z" fill="black"/>
<path opacity="0.1" d="M211.034 420.272C212.234 420.272 213.206 419.178 213.206 417.828C213.206 416.478 212.234 415.383 211.034 415.383C209.834 415.383 208.862 416.478 208.862 417.828C208.862 419.178 209.834 420.272 211.034 420.272Z" fill="black"/>
<path opacity="0.1" d="M211.034 428.424C212.234 428.424 213.206 427.33 213.206 425.979C213.206 424.629 212.234 423.535 211.034 423.535C209.834 423.535 208.862 424.629 208.862 425.979C208.862 427.33 209.834 428.424 211.034 428.424Z" fill="black"/>
<path opacity="0.1" d="M211.034 436.567C212.234 436.567 213.206 435.472 213.206 434.122C213.206 432.772 212.234 431.677 211.034 431.677C209.834 431.677 208.862 432.772 208.862 434.122C208.862 435.472 209.834 436.567 211.034 436.567Z" fill="black"/>
<path opacity="0.1" d="M211.034 444.709C212.234 444.709 213.206 443.615 213.206 442.265C213.206 440.915 212.234 439.82 211.034 439.82C209.834 439.82 208.862 440.915 208.862 442.265C208.862 443.615 209.834 444.709 211.034 444.709Z" fill="black"/>
<path opacity="0.1" d="M211.034 452.852C212.234 452.852 213.206 451.758 213.206 450.408C213.206 449.057 212.234 447.963 211.034 447.963C209.834 447.963 208.862 449.057 208.862 450.408C208.862 451.758 209.834 452.852 211.034 452.852Z" fill="black"/>
<path opacity="0.1" d="M211.034 460.995C212.234 460.995 213.206 459.9 213.206 458.55C213.206 457.2 212.234 456.106 211.034 456.106C209.834 456.106 208.862 457.2 208.862 458.55C208.862 459.9 209.834 460.995 211.034 460.995Z" fill="black"/>
<path opacity="0.1" d="M211.034 469.138C212.234 469.138 213.206 468.043 213.206 466.693C213.206 465.343 212.234 464.249 211.034 464.249C209.834 464.249 208.862 465.343 208.862 466.693C208.862 468.043 209.834 469.138 211.034 469.138Z" fill="black"/>
<path opacity="0.1" d="M211.034 477.28C212.234 477.28 213.206 476.186 213.206 474.836C213.206 473.486 212.234 472.391 211.034 472.391C209.834 472.391 208.862 473.486 208.862 474.836C208.862 476.186 209.834 477.28 211.034 477.28Z" fill="black"/>
<path opacity="0.1" d="M221.169 371.416C222.368 371.416 223.341 370.322 223.341 368.972C223.341 367.622 222.368 366.527 221.169 366.527C219.969 366.527 218.996 367.622 218.996 368.972C218.996 370.322 219.969 371.416 221.169 371.416Z" fill="black"/>
<path opacity="0.1" d="M221.169 379.559C222.368 379.559 223.341 378.465 223.341 377.114C223.341 375.764 222.368 374.67 221.169 374.67C219.969 374.67 218.996 375.764 218.996 377.114C218.996 378.465 219.969 379.559 221.169 379.559Z" fill="black"/>
<path opacity="0.1" d="M221.169 387.702C222.368 387.702 223.341 386.607 223.341 385.257C223.341 383.907 222.368 382.812 221.169 382.812C219.969 382.812 218.996 383.907 218.996 385.257C218.996 386.607 219.969 387.702 221.169 387.702Z" fill="black"/>
<path opacity="0.1" d="M221.169 395.844C222.368 395.844 223.341 394.75 223.341 393.4C223.341 392.05 222.368 390.955 221.169 390.955C219.969 390.955 218.996 392.05 218.996 393.4C218.996 394.75 219.969 395.844 221.169 395.844Z" fill="black"/>
<path opacity="0.1" d="M221.169 403.987C222.368 403.987 223.341 402.893 223.341 401.543C223.341 400.192 222.368 399.098 221.169 399.098C219.969 399.098 218.996 400.192 218.996 401.543C218.996 402.893 219.969 403.987 221.169 403.987Z" fill="black"/>
<path opacity="0.1" d="M221.169 412.13C222.368 412.13 223.341 411.035 223.341 409.685C223.341 408.335 222.368 407.241 221.169 407.241C219.969 407.241 218.996 408.335 218.996 409.685C218.996 411.035 219.969 412.13 221.169 412.13Z" fill="black"/>
<path opacity="0.1" d="M221.169 420.272C222.368 420.272 223.341 419.178 223.341 417.828C223.341 416.478 222.368 415.383 221.169 415.383C219.969 415.383 218.996 416.478 218.996 417.828C218.996 419.178 219.969 420.272 221.169 420.272Z" fill="black"/>
<path opacity="0.1" d="M221.169 428.424C222.368 428.424 223.341 427.33 223.341 425.979C223.341 424.629 222.368 423.535 221.169 423.535C219.969 423.535 218.996 424.629 218.996 425.979C218.996 427.33 219.969 428.424 221.169 428.424Z" fill="black"/>
<path opacity="0.1" d="M221.169 436.567C222.368 436.567 223.341 435.472 223.341 434.122C223.341 432.772 222.368 431.677 221.169 431.677C219.969 431.677 218.996 432.772 218.996 434.122C218.996 435.472 219.969 436.567 221.169 436.567Z" fill="black"/>
<path opacity="0.1" d="M221.169 444.709C222.368 444.709 223.341 443.615 223.341 442.265C223.341 440.915 222.368 439.82 221.169 439.82C219.969 439.82 218.996 440.915 218.996 442.265C218.996 443.615 219.969 444.709 221.169 444.709Z" fill="black"/>
<path opacity="0.1" d="M221.169 452.852C222.368 452.852 223.341 451.758 223.341 450.408C223.341 449.057 222.368 447.963 221.169 447.963C219.969 447.963 218.996 449.057 218.996 450.408C218.996 451.758 219.969 452.852 221.169 452.852Z" fill="black"/>
<path opacity="0.1" d="M221.169 460.995C222.368 460.995 223.341 459.9 223.341 458.55C223.341 457.2 222.368 456.106 221.169 456.106C219.969 456.106 218.996 457.2 218.996 458.55C218.996 459.9 219.969 460.995 221.169 460.995Z" fill="black"/>
<path opacity="0.1" d="M221.169 469.138C222.368 469.138 223.341 468.043 223.341 466.693C223.341 465.343 222.368 464.249 221.169 464.249C219.969 464.249 218.996 465.343 218.996 466.693C218.996 468.043 219.969 469.138 221.169 469.138Z" fill="black"/>
<path opacity="0.1" d="M221.169 477.28C222.368 477.28 223.341 476.186 223.341 474.836C223.341 473.486 222.368 472.391 221.169 472.391C219.969 472.391 218.996 473.486 218.996 474.836C218.996 476.186 219.969 477.28 221.169 477.28Z" fill="black"/>
<path opacity="0.1" d="M232.686 370.854C232.369 371.149 231.983 371.336 231.575 371.394C231.166 371.452 230.751 371.378 230.379 371.181C230.006 370.983 229.691 370.671 229.47 370.28C229.249 369.889 229.132 369.435 229.131 368.972C229.128 368.358 229.335 367.766 229.709 367.319C229.991 367.6 230.264 367.908 230.538 368.198C231.288 369.06 231.999 369.939 232.686 370.854Z" fill="black"/>
<path opacity="0.1" d="M231.296 379.559C232.495 379.559 233.468 378.465 233.468 377.114C233.468 375.764 232.495 374.67 231.296 374.67C230.096 374.67 229.123 375.764 229.123 377.114C229.123 378.465 230.096 379.559 231.296 379.559Z" fill="black"/>
<path opacity="0.1" d="M231.296 387.702C232.495 387.702 233.468 386.607 233.468 385.257C233.468 383.907 232.495 382.812 231.296 382.812C230.096 382.812 229.123 383.907 229.123 385.257C229.123 386.607 230.096 387.702 231.296 387.702Z" fill="black"/>
<path opacity="0.1" d="M231.296 395.844C232.495 395.844 233.468 394.75 233.468 393.4C233.468 392.05 232.495 390.955 231.296 390.955C230.096 390.955 229.123 392.05 229.123 393.4C229.123 394.75 230.096 395.844 231.296 395.844Z" fill="black"/>
<path opacity="0.1" d="M231.296 403.987C232.495 403.987 233.468 402.893 233.468 401.543C233.468 400.192 232.495 399.098 231.296 399.098C230.096 399.098 229.123 400.192 229.123 401.543C229.123 402.893 230.096 403.987 231.296 403.987Z" fill="black"/>
<path opacity="0.1" d="M231.296 412.13C232.495 412.13 233.468 411.035 233.468 409.685C233.468 408.335 232.495 407.241 231.296 407.241C230.096 407.241 229.123 408.335 229.123 409.685C229.123 411.035 230.096 412.13 231.296 412.13Z" fill="black"/>
<path opacity="0.1" d="M231.296 420.272C232.495 420.272 233.468 419.178 233.468 417.828C233.468 416.478 232.495 415.383 231.296 415.383C230.096 415.383 229.123 416.478 229.123 417.828C229.123 419.178 230.096 420.272 231.296 420.272Z" fill="black"/>
<path opacity="0.1" d="M231.296 428.424C232.495 428.424 233.468 427.33 233.468 425.979C233.468 424.629 232.495 423.535 231.296 423.535C230.096 423.535 229.123 424.629 229.123 425.979C229.123 427.33 230.096 428.424 231.296 428.424Z" fill="black"/>
<path opacity="0.1" d="M231.296 436.567C232.495 436.567 233.468 435.472 233.468 434.122C233.468 432.772 232.495 431.677 231.296 431.677C230.096 431.677 229.123 432.772 229.123 434.122C229.123 435.472 230.096 436.567 231.296 436.567Z" fill="black"/>
<path opacity="0.1" d="M231.296 444.709C232.495 444.709 233.468 443.615 233.468 442.265C233.468 440.915 232.495 439.82 231.296 439.82C230.096 439.82 229.123 440.915 229.123 442.265C229.123 443.615 230.096 444.709 231.296 444.709Z" fill="black"/>
<path opacity="0.1" d="M231.296 452.852C232.495 452.852 233.468 451.758 233.468 450.408C233.468 449.057 232.495 447.963 231.296 447.963C230.096 447.963 229.123 449.057 229.123 450.408C229.123 451.758 230.096 452.852 231.296 452.852Z" fill="black"/>
<path opacity="0.1" d="M231.296 460.995C232.495 460.995 233.468 459.9 233.468 458.55C233.468 457.2 232.495 456.106 231.296 456.106C230.096 456.106 229.123 457.2 229.123 458.55C229.123 459.9 230.096 460.995 231.296 460.995Z" fill="black"/>
<path opacity="0.1" d="M231.296 469.138C232.495 469.138 233.468 468.043 233.468 466.693C233.468 465.343 232.495 464.249 231.296 464.249C230.096 464.249 229.123 465.343 229.123 466.693C229.123 468.043 230.096 469.138 231.296 469.138Z" fill="black"/>
<path opacity="0.1" d="M233.257 473.78C232.43 474.955 231.546 476.076 230.608 477.14C230.266 477.012 229.958 476.792 229.711 476.498C229.464 476.203 229.286 475.845 229.192 475.454C229.099 475.063 229.093 474.652 229.176 474.258C229.258 473.864 229.427 473.499 229.665 473.196C229.904 472.893 230.206 472.662 230.544 472.523C230.882 472.384 231.245 472.341 231.601 472.399C231.957 472.457 232.295 472.614 232.584 472.855C232.873 473.096 233.104 473.414 233.257 473.78Z" fill="black"/>
<path d="M205.369 445.518H203.681C201.351 445.518 199.462 447.644 199.462 450.267V549.888C199.462 552.51 201.351 554.636 203.681 554.636H205.369C207.699 554.636 209.589 552.51 209.589 549.888V450.267C209.589 447.644 207.699 445.518 205.369 445.518Z" fill="#54576B"/>
<path d="M233.827 539.977H175.223C172.224 539.977 169.792 542.713 169.792 546.089V548.524C169.792 551.9 172.224 554.636 175.223 554.636H233.827C236.827 554.636 239.258 551.9 239.258 548.524V546.089C239.258 542.713 236.827 539.977 233.827 539.977Z" fill="#54576B"/>
<path opacity="0.1" d="M205.369 445.518H203.681C201.351 445.518 199.462 447.644 199.462 450.267V549.888C199.462 552.51 201.351 554.636 203.681 554.636H205.369C207.699 554.636 209.589 552.51 209.589 549.888V450.267C209.589 447.644 207.699 445.518 205.369 445.518Z" fill="black"/>
<path opacity="0.1" d="M233.827 539.977H175.223C172.224 539.977 169.792 542.713 169.792 546.089V548.524C169.792 551.9 172.224 554.636 175.223 554.636H233.827C236.827 554.636 239.258 551.9 239.258 548.524V546.089C239.258 542.713 236.827 539.977 233.827 539.977Z" fill="black"/>
<path d="M206.815 445.518H205.127C202.796 445.518 200.907 447.644 200.907 450.267V549.888C200.907 552.51 202.796 554.636 205.127 554.636H206.815C209.145 554.636 211.034 552.51 211.034 549.888V450.267C211.034 447.644 209.145 445.518 206.815 445.518Z" fill="#54576B"/>
<path d="M235.273 539.977H176.668C173.669 539.977 171.238 542.713 171.238 546.089V548.524C171.238 551.9 173.669 554.636 176.668 554.636H235.273C238.272 554.636 240.703 551.9 240.703 548.524V546.089C240.703 542.713 238.272 539.977 235.273 539.977Z" fill="#54576B"/>
<path d="M266.294 454.752C260.863 468.049 252.157 479.314 241.209 487.211C230.26 495.108 217.529 499.305 204.525 499.305C191.521 499.305 178.789 495.108 167.841 487.211C156.893 479.314 148.187 468.049 142.756 454.752C135.559 443.135 129.269 419.974 129.269 422.726C129.269 433.848 131.216 444.86 134.998 455.135C138.78 465.41 144.323 474.746 151.311 482.61C158.299 490.475 166.595 496.713 175.726 500.969C184.856 505.225 194.642 507.415 204.525 507.415C214.408 507.415 224.194 505.225 233.324 500.969C242.455 496.713 250.751 490.475 257.739 482.61C264.727 474.746 270.27 465.41 274.052 455.135C277.834 444.86 279.781 433.848 279.781 422.726C279.781 419.974 273.491 443.135 266.294 454.752Z" fill="#54576B"/>
<path d="M204.525 338.028C192.386 338.031 180.427 341.341 169.671 347.674C158.915 354.007 149.68 363.176 142.756 374.397C138.629 384.434 136.496 395.363 136.505 406.423C136.505 409.143 136.633 411.861 136.888 414.566C138.589 395.711 146.449 378.237 158.944 365.531C171.439 352.825 187.68 345.791 204.521 345.791C221.362 345.791 237.603 352.825 250.099 365.531C262.594 378.237 270.453 395.711 272.155 414.566C272.41 411.861 272.538 409.143 272.537 406.423C272.547 395.363 270.414 384.434 266.286 374.397C259.363 363.177 250.13 354.009 239.375 347.676C228.62 341.343 216.663 338.033 204.525 338.028Z" fill="#54576B"/>
<path opacity="0.1" d="M205.971 459.359C207.567 459.359 208.862 457.903 208.862 456.106C208.862 454.309 207.567 452.852 205.971 452.852C204.374 452.852 203.079 454.309 203.079 456.106C203.079 457.903 204.374 459.359 205.971 459.359Z" fill="black"/>
<path opacity="0.2" d="M341.644 536.724C342.244 536.724 342.73 536.177 342.73 535.502C342.73 534.827 342.244 534.279 341.644 534.279C341.044 534.279 340.558 534.827 340.558 535.502C340.558 536.177 341.044 536.724 341.644 536.724Z" fill="black"/>
<path d="M300.667 560.088C296.348 560.118 292.077 559.064 288.165 557.001C273.584 549.281 266.396 550.257 255.519 551.725C245.325 553.306 235.016 553.728 224.747 552.983C221.884 552.833 219.086 551.966 216.558 550.445C214.03 548.923 211.836 546.786 210.135 544.189C194.007 520.623 204.798 458.577 205.267 455.947C205.316 455.748 205.429 455.576 205.586 455.468C205.742 455.359 205.929 455.321 206.109 455.361C206.29 455.401 206.45 455.516 206.557 455.684C206.665 455.852 206.712 456.059 206.689 456.264C206.58 456.897 195.555 520.21 211.284 543.187C212.859 545.602 214.894 547.59 217.24 549.006C219.585 550.423 222.182 551.231 224.841 551.374C235.011 552.108 245.221 551.687 255.315 550.116C266.442 548.604 273.795 547.601 288.751 555.524C312.607 568.16 340.565 536.02 340.839 535.695C340.976 535.561 341.153 535.49 341.335 535.496C341.517 535.502 341.69 535.584 341.82 535.727C341.95 535.869 342.029 536.061 342.04 536.265C342.05 536.469 341.993 536.671 341.878 536.829C341.667 537.111 321.671 560.088 300.667 560.088Z" fill="#DFE6F5"/>
<path d="M327.251 127.654C315.303 103.428 291.049 86.8173 263.176 86.8173C223.482 86.8173 191.179 120.426 191.179 161.737H186.076C186.076 117.286 220.653 81.1191 263.137 81.1191C287.736 81.1191 309.677 93.2365 323.797 112.072C324.953 116.293 325.836 120.61 326.711 124.919C326.907 125.842 327.086 126.748 327.251 127.654Z" fill="#535461"/>
<path d="M196.844 137.933H203.509V189.815H196.844C191.754 189.815 186.873 187.539 183.274 183.489C179.675 179.439 177.653 173.946 177.653 168.218V159.583C177.647 156.742 178.139 153.928 179.1 151.302C180.062 148.676 181.475 146.289 183.257 144.278C185.04 142.267 187.158 140.671 189.489 139.582C191.82 138.494 194.32 137.933 196.844 137.933Z" fill="#DFE6F5"/>
<path d="M204.455 137.977H202.564C199.962 137.977 197.852 140.351 197.852 143.28V184.512C197.852 187.441 199.962 189.815 202.564 189.815H204.455C207.057 189.815 209.167 187.441 209.167 184.512V143.28C209.167 140.351 207.057 137.977 204.455 137.977Z" fill="#535461"/>
<path d="M627.344 510.695C627.344 510.695 614.936 505.964 608.966 518.266C607.391 521.602 606.59 525.331 606.636 529.108C606.682 532.884 607.575 536.587 609.232 539.872C613.139 547.848 621.234 558.206 636.58 557.283C649.567 556.5 653.888 545.35 655.06 534.974C655.51 531.084 655.064 527.129 653.766 523.488C652.468 519.847 650.361 516.642 647.647 514.179C644.933 511.717 641.703 510.081 638.265 509.426C634.828 508.771 631.299 509.12 628.016 510.44L627.344 510.695Z" fill="white"/>
<path opacity="0.1" d="M611.857 540.98C610.201 537.695 609.308 533.992 609.261 530.216C609.215 526.439 610.016 522.71 611.591 519.374C617.561 507.064 629.97 511.803 629.97 511.803L630.603 511.548C635.334 509.622 640.534 509.754 645.183 511.918C642.618 510.198 639.745 509.141 636.772 508.822C633.8 508.502 630.801 508.929 627.993 510.071L627.36 510.326C627.36 510.326 614.951 505.595 608.982 517.897C607.407 521.233 606.605 524.961 606.652 528.738C606.698 532.515 607.591 536.217 609.247 539.503C611.834 544.779 616.217 551.031 623.312 554.451C618.47 551.225 614.508 546.565 611.857 540.98Z" fill="white"/>
<path opacity="0.2" d="M620.937 516.613C620.937 516.613 625.539 520.685 636.705 516.613H620.937Z" fill="black"/>
<path d="M619.952 487.032C619.952 487.032 627.836 511.065 627.18 517.352L633.431 516.613C633.431 516.613 622.875 495.535 625.539 487.032H619.952Z" fill="white"/>
<path opacity="0.2" d="M619.952 487.032C619.952 487.032 627.836 511.065 627.18 517.352L633.431 516.613C633.431 516.613 622.875 495.535 625.539 487.032H619.952Z" fill="black"/>
<path d="M652.138 489.037C652.138 489.037 639.729 481.897 634.166 487.797C628.602 493.698 627.758 508.778 627.758 508.778C627.758 508.778 648.004 511.918 652.138 489.037Z" fill="white"/>
<path opacity="0.1" d="M652.138 489.037C652.138 489.037 639.729 481.897 634.166 487.797C628.602 493.698 627.758 508.778 627.758 508.778C627.758 508.778 648.004 511.918 652.138 489.037Z" fill="white"/>
<path d="M627.766 508.778C627.766 508.778 631.025 491.271 652.138 489.037" stroke="#6C63FF" stroke-miterlimit="10"/>
</g>
<defs>
<linearGradient id="paint0_linear_34_382" x1="464.666" y1="621.475" x2="464.666" y2="58.7663" gradientUnits="userSpaceOnUse">
<stop stop-color="#808080" stop-opacity="0.25"/>
<stop offset="0.54" stop-color="#808080" stop-opacity="0.12"/>
<stop offset="1" stop-color="#808080" stop-opacity="0.1"/>
</linearGradient>
<clipPath id="clip0_34_382">
<rect width="890.951" height="682.369" fill="white" transform="translate(0.800415 0.756104)"/>
</clipPath>
</defs>
</svg>
